<?xml version="1.0" encoding="UTF-8"?>
<svg id="principal" xmlns="http://www.w3.org/2000/svg" viewBox="0 0 45.87 39.03">
  <defs>
    <style>
      .cls-1 {
        fill: #f3efdd;
      }
    </style>
  </defs>
  <path class="cls-1" d="M21.53,9.87c.77,0,1.32.47,1.65,1.4-1.98,1.16-3.45,2.49-4.42,4-.96,1.51-1.44,2.68-1.44,3.51,0,.61.29,1.25.87,1.94.58.69,1.14,1.36,1.69,2.02.55.66.83,1.32.83,1.98,0,.99-.55,1.83-1.65,2.52-1.1.69-2.34,1.03-3.72,1.03-.5,0-1.05-.08-1.65-.25-.77-1.1-1.16-3.03-1.16-5.78,0-1.43.29-2.85.87-4.25s1.28-2.57,2.11-3.51c1.16-1.27,2.35-2.35,3.59-3.26,1.24-.91,2.05-1.36,2.44-1.36ZM33.75,9.87c.77,0,1.32.47,1.65,1.4-1.98,1.16-3.45,2.49-4.42,4-.96,1.51-1.44,2.68-1.44,3.51,0,.61.29,1.25.87,1.94.58.69,1.14,1.36,1.69,2.02.55.66.83,1.32.83,1.98,0,.99-.55,1.83-1.65,2.52-1.1.69-2.34,1.03-3.72,1.03-.5,0-1.05-.08-1.65-.25-.77-1.1-1.16-3.03-1.16-5.78,0-1.43.29-2.85.87-4.25s1.28-2.57,2.11-3.51c1.16-1.27,2.35-2.35,3.59-3.26,1.24-.91,2.05-1.36,2.44-1.36Z"/>
</svg>