<?xml version="1.0" encoding="UTF-8"?>
<svg id="principal" xmlns="http://www.w3.org/2000/svg" viewBox="0 0 95 95">
  <defs>
    <style>
      .cls-1 {
        fill: none;
        stroke: #477b9e;
        stroke-miterlimit: 10;
        stroke-width: 2px;
      }

      .cls-2 {
        fill-rule: evenodd;
      }

      .cls-2, .cls-3 {
        fill: #477b9e;
      }
    </style>
  </defs>
  <path class="cls-2" d="M92.87,72.45c-.49,4.93-2.41,10.89-5.12,15.17-1.87,2.94-4.04,5.15-6.53,5.15-1.12,0-2.19-.51-3.2-1.32-1.2-.96-2.31-2.33-3.32-3.92-2.71-4.31-4.61-10.27-5.12-15.07h23.29ZM66.27,70.52c-.07-.1-.14-.2-.17-.29.04.1.09.2.17.3h0s0,0,0,0ZM96.18,70.53h0c.07-.11.13-.2.17-.3-.04.1-.09.2-.17.3ZM88.15,28.44h-14c-.9,6.32-4.43,31.51-4.69,40.63h23.52c-.27-9-3.91-34.31-4.83-40.63h0ZM77.77,23.27v1.77h3.38c-.29,0-.57-.07-.83-.22l-2.55-1.56ZM84.54,23.28l-2.51,1.56c-.25.14-.52.2-.8.2h3.31v-1.76ZM79.46,20.34v-10.75l-10.16-6.77v11.31l10.16,6.21ZM82.91,20.3l9.89-6.17V2.85l-9.89,6.73v10.73Z"/>
  <g>
    <rect class="cls-1" x="2.83" y="2.84" width="47.61" height="29.97"/>
    <rect class="cls-3" x="10.69" y="14.1" width="5.56" height="8.1"/>
    <rect class="cls-3" x="23.42" y="14.1" width="5.56" height="8.1"/>
    <rect class="cls-3" x="36.14" y="14.1" width="5.56" height="8.1"/>
  </g>
  <g>
    <rect class="cls-1" x="2.83" y="62.78" width="47.61" height="29.97"/>
    <rect class="cls-3" x="10.69" y="74.04" width="5.56" height="8.1"/>
    <rect class="cls-3" x="23.42" y="74.04" width="5.56" height="8.1"/>
    <rect class="cls-3" x="36.14" y="74.04" width="5.56" height="8.1"/>
  </g>
  <g>
    <rect class="cls-1" x="7.52" y="32.81" width="47.61" height="29.97"/>
    <rect class="cls-3" x="15.38" y="44.07" width="5.56" height="8.1"/>
    <rect class="cls-3" x="28.11" y="44.07" width="5.56" height="8.1"/>
    <rect class="cls-3" x="40.83" y="44.07" width="5.56" height="8.1"/>
  </g>
</svg>