<?xml version="1.0" encoding="UTF-8"?>
<svg id="fondos" xmlns="http://www.w3.org/2000/svg" viewBox="0 0 65 65">
  <g id="c">
    <g>
      <rect x="14.18" y="42.2" width="2.16" height="2.16"/>
      <rect x="48.67" y="42.2" width="2.15" height="2.16"/>
      <rect x="14.18" y="37.89" width="2.16" height="2.16"/>
      <rect x="44.35" y="37.89" width="2.16" height="2.16"/>
      <rect x="48.67" y="37.89" width="2.15" height="2.16"/>
      <rect x="18.49" y="37.89" width="2.16" height="2.16"/>
      <rect x="18.49" y="33.58" width="2.16" height="2.16"/>
      <rect x="22.8" y="33.58" width="2.16" height="2.16"/>
      <rect x="40.04" y="33.58" width="2.16" height="2.16"/>
      <rect x="44.35" y="33.58" width="2.16" height="2.16"/>
      <rect x="22.8" y="29.27" width="2.16" height="2.15"/>
      <rect x="40.04" y="29.27" width="2.16" height="2.15"/>
      <rect x="35.73" y="29.27" width="2.16" height="2.15"/>
      <rect x="27.11" y="29.27" width="2.16" height="2.15"/>
      <rect x="35.73" y="24.95" width="2.16" height="2.15"/>
      <rect x="27.11" y="24.95" width="2.16" height="2.15"/>
      <rect x="31.42" y="24.95" width="2.16" height="2.15"/>
      <rect x="31.42" y="20.64" width="2.16" height="2.15"/>
      <rect x="50.82" y="40.05" width="2.16" height="2.15"/>
      <rect x="50.82" y="42.2" width="2.16" height="2.16"/>
      <rect x="50.82" y="37.89" width="2.16" height="2.16"/>
      <rect x="46.51" y="40.05" width="2.16" height="2.15"/>
      <rect x="46.51" y="35.73" width="2.16" height="2.15"/>
      <rect x="46.51" y="42.2" width="2.16" height="2.16"/>
      <rect x="46.51" y="37.89" width="2.16" height="2.16"/>
      <rect x="46.51" y="33.58" width="2.16" height="2.16"/>
      <rect x="42.2" y="31.42" width="2.15" height="2.16"/>
      <rect x="42.2" y="35.73" width="2.15" height="2.15"/>
      <rect x="42.2" y="37.89" width="2.15" height="2.16"/>
      <rect x="42.2" y="33.58" width="2.15" height="2.16"/>
      <rect x="42.2" y="29.27" width="2.15" height="2.15"/>
      <rect x="37.89" y="27.11" width="2.15" height="2.16"/>
      <rect x="37.89" y="31.42" width="2.15" height="2.16"/>
      <rect x="37.89" y="33.58" width="2.15" height="2.16"/>
      <rect x="37.89" y="29.27" width="2.15" height="2.15"/>
      <rect x="37.89" y="24.95" width="2.15" height="2.15"/>
      <rect x="33.58" y="27.11" width="2.15" height="2.16"/>
      <rect x="33.58" y="22.8" width="2.15" height="2.16"/>
      <rect x="33.58" y="29.27" width="2.15" height="2.15"/>
      <rect x="33.58" y="24.95" width="2.15" height="2.15"/>
      <rect x="33.58" y="20.64" width="2.15" height="2.15"/>
      <rect x="29.27" y="22.8" width="2.15" height="2.16"/>
      <rect x="29.27" y="27.11" width="2.15" height="2.16"/>
      <rect x="29.27" y="29.27" width="2.15" height="2.15"/>
      <rect x="29.27" y="24.95" width="2.15" height="2.15"/>
      <rect x="29.27" y="20.64" width="2.15" height="2.15"/>
      <rect x="24.96" y="31.42" width="2.15" height="2.16"/>
      <rect x="24.96" y="27.11" width="2.15" height="2.16"/>
      <rect x="24.96" y="33.58" width="2.15" height="2.16"/>
      <rect x="24.96" y="29.27" width="2.15" height="2.15"/>
      <rect x="24.96" y="24.95" width="2.15" height="2.15"/>
      <rect x="20.65" y="31.42" width="2.15" height="2.16"/>
      <rect x="20.65" y="35.73" width="2.15" height="2.15"/>
      <rect x="20.65" y="37.89" width="2.15" height="2.16"/>
      <rect x="20.65" y="33.58" width="2.15" height="2.16"/>
      <rect x="20.65" y="29.27" width="2.15" height="2.15"/>
      <rect x="16.33" y="35.73" width="2.15" height="2.15"/>
      <rect x="16.33" y="40.05" width="2.15" height="2.15"/>
      <rect x="16.33" y="42.2" width="2.15" height="2.16"/>
      <rect x="16.33" y="37.89" width="2.15" height="2.16"/>
      <rect x="16.33" y="33.58" width="2.15" height="2.16"/>
      <rect x="12.02" y="40.05" width="2.16" height="2.15"/>
      <rect x="12.02" y="42.2" width="2.16" height="2.16"/>
      <rect x="12.02" y="37.89" width="2.16" height="2.16"/>
    </g>
  </g>
</svg>