<?xml version="1.0" encoding="UTF-8"?>
<svg id="principal" xmlns="http://www.w3.org/2000/svg" xmlns:xlink="http://www.w3.org/1999/xlink" version="1.1" viewBox="0 0 104.3 109.1">
  <!-- Generator: Adobe Illustrator 29.0.1, SVG Export Plug-In . SVG Version: 2.1.0 Build 192)  -->
  <defs>
    <style>
      .st0 {
        fill: none;
      }

      .st1 {
        fill: #f3efdd;
      }

      .st2 {
        clip-path: url(#clippath);
      }
    </style>
    <clipPath id="clippath">
      <path class="st0" d="M46.7,16.4c-4.2,1.5-8.8,4.2-11.8,8.7,0,0-3,5.7-4.3,8.3,0,0-2.8,6-9.9,12.4,0,0-7.5,6.7-2.1,8.2,0,0,4,1.1,5.1,1.1-.8,1.5-8.9,15.8,2.6,20.7,0,0,7.5,1.9,10.6,1.7,0,0-6.9,11.9-5.8,15,0,0,1.1,2.4,31.9,2.1,0,0,16-.1,17.3-4.2,0,0,8.3-37.2,6.8-50.1,0,0,1.6-19.2-21.7-24.7-6.3-1.5-12.9-1.4-19,.8h0Z"/>
    </clipPath>
  </defs>
  <path class="st1" d="M46.7,16.4c-4.2,1.5-8.8,4.2-11.8,8.7,0,0-3,5.7-4.3,8.3,0,0-2.8,6-9.9,12.3,0,0-7.5,6.7-2.1,8.2,0,0,4,1.1,5.1,1.1-.8,1.5-8.9,15.8,2.6,20.7,0,0,7.5,1.9,10.6,1.7,0,0-6.9,11.9-5.8,15,0,0,1.1,2.4,31.9,2.1,0,0,16-.1,17.3-4.2,0,0,8.3-37.2,6.8-50.1,0,0,1.6-19.2-21.7-24.7-6.3-1.5-12.9-1.4-19,.8h0Z"/>
  <g class="st2">
    <g>
      <path d="M91.7,6.1c0,.2.2.1.3.2,0,0,.2.2.2.2.2.2.2,0,.4.3,0,0,.6.2.4.5.4-.1.3.4.3.4,0,.1.5.5.6.7,0,.1,0,.2,0,.2,0,0,.2.1.2.2,0,0,0,.7.3.6v.4c-.1,0,0,0,0,0-.2.3,0,.3.1.5h-.1c0,0,.1.3.1.3h-.2c0,0,0,.3,0,.3h-.1c0,0,.2.4.2.4h-.2s.2.9.1,1.1c0,0,0,0,0,0,0,0,0,.3,0,.2h0c-.2.1,0,.2,0,.3,0,.2-.2.4-.2.6,0,.2.1.3-.2.3h.2c0,.2,0,.2-.1.2,0,.1,0,.3-.1.4h.1c0,.1-.2.4-.2.4.2.2,0,.2,0,.4-.1.3-.2.9-.3,1.4,0,.3,0,.7,0,1.1,0,.1-.2.2-.3.3h.1c0,0-.2.2-.2.2.3.2,0,.3.1.6h-.1c.1.4-.3.7-.1,1.2h-.1c0,.1.1.2.1.2-.2.2,0,.3,0,.4,0,.3-.2.8-.2,1.1,0,.3,0,.1,0,.4,0,.2.1.5-.2.8l.2.2h-.2c0,.3,0,.6.2.8h-.2c0,.2,0,.3,0,.6h-.2c0,0,.1.5.1.5h-.2c0,.3.2.1.2.2,0,.1,0,.4,0,.4,0,0-.1.1-.2.2,0,0,.2.6,0,.6h0c.3.2,0,.4.1.6h-.2c.2.4,0,.5,0,.7,0,0,.2.4.1.5,0,0-.2,0-.2.3.4-.2.3.3,0,.3v.2c.1,0,0,0,0,0,0,.1.1,0,.1,0,0,0,0,.2-.1.3,0,.2,0,.5.2.7h-.3c0,.1.2.2.2.2,0,.1-.3.2-.2.3,0,0,.2-.2.2,0h-.2c.2.7-.4,1.3,0,1.9h-.2c0,.3,0,.8,0,1.1,0,.1-.3.2,0,.5-.2,0-.1.4,0,.6h-.2c.2.3,0,.4,0,.6h.2c-.1.2-.3.2-.2.5h.1c0,0-.2,0-.2,0v.2h.2c-.2.2-.3.2-.2.6h-.2v.8c0,0-.1,0-.1,0,0,.3.1.2.1.4h-.2c.1.3,0,.6-.1.8.3.1-.2.4.1.6h-.2c0,0,.1.3.1.3-.3.2,0,.2,0,.4,0,.1-.2.4,0,.6h-.2c0,0,.1.3.1.3-.2-.2,0,.3-.2.4h.2v.3h-.2s.2.4.2.4h-.2c-.2.2,0,.1,0,.3h-.3c0,0,0,.2,0,.2h-.2c0,.2.1,0,.2.1.1.2,0,.5,0,.5h.2c0,0-.2.1-.2.1v.5c0,0-.1,0-.1,0l.2.8h-.2c0,0,0,.4,0,.4h.2c0,0-.3.2-.3.3,0,.2,0,.8,0,1.1h.2c0,0-.2.4-.2.4h.2s.1,0,.2.1,0,.5,0,.6c0,.2.3.3.2.5h0c0,0,.2,0,.2,0l-.2.2c.2.1.2.3.3.5.2.3.2.2.3.5.1.3.3.2.3.2.1.2.2.3.2.5,0,0,.1,0,.1,0,0,0,0,.3,0,.5h.2c-.1.3,0,.2,0,.2,0,.1,0,.3.3.3-.2.3.1.4.2.6,0,.2,0,.6.2.8,0,.1.3.2.3.4,0,.1,0,.3,0,.4,0,0,.2,0,.3.2,0,.2.1.6.2.9,0,0,.2.1.2.2,0,0,.1.5.2.5h.2c-.1.2,0,.2.1.4,0,.2,0,.5.3.6l.2.6h.2c0,0-.1.2-.1.2h.2c0,0,0,.3,0,.3h.2v.2s.6.6.6.6c0,.2,0,.2-.1.3.2,0,0,.1,0,.2,0,.2.2.6.3.8,0,.2.2.7.1.8h.2c0,.1-.3,0-.2.3h.2c-.1.2,0,.5.1.7,0,.3,0,.8.1,1-.1.2,0,.3.1.5l-.2.2v.2c.1,0,0,0,0,0,.5,0,0,.4,0,.4l.2.2h-.2s0,.9,0,.9h.1c0,.2-.1.3-.1.3,0,.3,0,1.3,0,1.6,0,0-.1,0-.1,0,0,.2,0,1.3,0,1.6,0,.9,0,1.8-.1,2.7,0,.1,0,.4,0,.5,0,1.5.1,3.1.2,4.6,0,.4,0,.7,0,1.1,0,.2.2.2,0,.4h.2c-.3.3,0,.3,0,.7s-.1.6-.2.8c0,.2.2.8.2,1,0,.3-.2.7-.2.9s0,.8,0,1.1c0,.3.2,1.6,0,1.7h-1.3c-.1,0,0-.6,0-.8-.2-2.2-.6-4.4-.7-6.7,0-.9-.3-2-.3-2.9s0-2.3-.2-3.2c0-.7-.1-1.1-.3-1.8,0-.1,0-.7-.2-.7h0c0-.1.2-.2.2-.2-.2-.2-.2-.7-.3-1,0-.1-.2-.5-.2-.5,0,0,0-.6,0-.7,0,0-.2,0-.2-.2,0-.2,0-.3.2-.5h-.2v-.2s-.1,0-.1,0v-.2c.1,0,0,0,0,0h.2c0-.3-.2-.6,0-.9h-.2c0-.3,0-.7-.1-.8h.2c-.2,0-.3-.6-.1-.7h-.2c0,0,.2-.3.2-.4s-.3-.6-.4-.7c0,0,.2,0,.2-.2h-.2c0,0,0-.3,0-.3,0,0,0,0,0,0,0-.1,0-.4-.3-.2.2-.2-.2-.9-.3-1,0,0-.1,0-.1,0v-.3c0-.2-.1-.3-.1-.5h-.2c.2-.2,0-.2,0-.3s0-.2,0-.3c0,0-.3-.4-.3-.5,0,0-.2,0-.2,0,0,0,0-.2,0-.3,0-.2-.3-.3-.3-.3,0,0,0-.6-.1-.7h-.2c.1-.4-.2-.6-.3-.9-.1-.2-.1-.7-.5-.6v-.4h-.4c0,0,0,.3,0,.3h-.1c0,0,0,.3,0,.3h.2c-.2.3-.5,0-.7.2.1,0,0,.3,0,.3s.1,0,.2,0c0,.2-.1.8-.2,1h-.2c0,.2.2,0,.2.3,0,.2-.2.2,0,.4h-.2s.1.2.1.2h-.2v.5h.1c0,.2,0,.5-.2.5h.1c0,0,0,.2,0,.2h-.2c0,0,0,0,0,0h.2s-.2.2-.2.2v.2c0,0-.2,0-.2,0h.3c0,.3-.3.5-.1.8h-.1c.1,0,.3.1.3.3h-.2s-.1.2-.1.2h.2s0,.2,0,.2c-.3.1-.3.5-.2.7h-.2c.1.3,0,.2,0,.3h.2c0,.1-.2.2-.2.2.1.3.2.7-.2.8h.2c0,.2,0,.2-.1.3,0,0,0,.2,0,.2s-.1,0-.2,0c0,0,0,.5.1.6h-.4c-.1.3.2.4.2.5,0,.2-.2.4-.4.3h.2v.2h-.2l.2.4h-.2c0,0,0,.2,0,.2h-.1c0,0-.1.2-.1.2.2,0,.1.2.3.2-.1.1-.2.2-.1.3h-.2c0-.1.1.2.1.2,0,0-.2-.1-.1,0s.2.3.2.5c-.2,0-.3,0-.2.2h.2c-.2.2,0,.6-.3.7h.1s-.1.3-.1.3h.2c-.1.2-.3.5,0,.6h0c-.4.4,0,.6,0,.7,0,0-.2.3-.2.4,0,0,.1.1,0,.2,0,0-.2.2-.2.3s0,.4,0,.4c0,0,.1,0,.1,0,.1.2-.2.1-.2.3h.2s-.1.3-.1.3h.1c0,0-.1,0-.1,0,0,.1.1,0,.1.1,0,0,0,.4,0,.5h-.2s0,.2,0,.2h.2c0,0,0,.3,0,.4s-.1,0-.1,0c0,.3.4.5.1.7v-.2c0,.2-.2.2,0,.3,0,.1,0,0-.1.1,0,0,0,.5,0,.5h.2c-.1,0-.2.2-.2.4h.2c0,0,0,.2,0,.3,0,.3.1.2.2.4,0,.3,0,.3.2.7,0,.2,0,.3.3.4h-.2c.1.2.2.3.2.5h.3c-.2.3.3.4.2.7h.2c0,0,0,0,0,0,.2,0,.1.2.2.2.1.2.3.3.3.6h.2c0,0,0,.1,0,.1-.2,0,0,.5,0,.6h0c-.2.2-.1.4,0,.5-.2,0,0,.4-.3.6.3.1,0,.2,0,.2-.1.2,0,.1-.2.3-.1.2-.2.5-.4.4v.2c0,0-.2,0-.3.1,0,0-.3.4-.4.4-.1,0-.5,0-.8.3-.2.1-.1,0-.3.1-.2,0-.2.3-.5.1h0c-.1.1-.8,0-.8,0,0,0,0,.2-.2.2h0c0-.1-.6,0-.6,0v-.2s-.2.2-.2.2c-.1-.2-.4-.2-.7-.2-.2,0-1.1-.5-1.3-.6,0,0,0-.2-.1-.2-.1,0-.2,0-.4,0-.1,0-.1-.1-.2-.2-.1,0-.5-.2-.6-.2-.3,0-.3-.2-.6-.3-.2-.1-.5-.2-.8-.3h0c0-.1-.3-.1-.3-.1v-.2c-.1-.1-.3-.2-.5-.3-.4-.2-.8-.4-1.2-.5-.2,0-.4,0-.4-.2h-.2c0,0,0,0,0,0-.1,0-.4,0-.5-.2-.2-.2.4,0,0-.2-.1,0-.3,0-.4,0,0,0,0-.2,0-.2,0,0-.3,0-.4,0,0-.3-.2-.2-.3-.3-.1,0,0,0-.2,0-.3,0-1-.8-1.4-1-.1,0-.8-.3-.9-.3,0,0,0-.2,0-.3h-.3v-.2c-.2,0-.2-.1-.3-.2-.1,0-.3,0-.4-.3h0c0,.1,0-.2,0-.2h-.2v-.2h-.2v-.2c-.2,0-.3-.3-.5-.4s-.6,0-.5-.3c-.2,0-.2,0-.3-.1h0c0,0,0-.2-.1-.2-.1-.1-.3,0-.4-.1,0,0,0-.3-.1-.3,0,0-.1,0-.2,0,0,0-.3-.4-.4-.4-.2-.2-.6-.4-.8-.4h0c-.2,0-.2-.2-.2-.3-.1-.2-.6-.1-.6-.4h-.2c0,0,0-.2,0-.2h-.2c0,0,0-.1,0-.1h-.4l.2-.2c0,0-.4,0-.4,0s0-.1,0-.2c0,0-.2,0-.2,0,0,0-.1-.3-.2-.3,0,0-.2,0-.2,0,0,0,0-.1,0-.2,0,0-.6-.2-.7-.5h-.3c0,.1,0,0,0,0,0,.3-.3.5-.4.7-.1.3-.1.4-.3.8-.2.4-.2.5-.3.9-.3,1.1-.8,2.2-1.1,3.3-.4,1.6-1.2,4.1-1.8,5.6-.4.9-.6,1.7-1.1,2.6-.4.7-.9,1.8-1.6,2.2-.5.3-.7.3-1.2.2-.2,0-1-.3-1.1-.4-.2-.1-1.5-1.7-1.7-1.9-.1-.2-.2-.5-.3-.7-.3-.4-1-1.3-1.4-1.7-.1-.1-.3,0-.3-.4h-.2c0-.2-.3-.4-.3-.4,0,0,0-.1,0-.2,0,0-.4-.5-.5-.5.1-.3,0-.1-.1-.3s0-.4-.3-.5v-.2c-.2,0-.1-.2-.2-.4-.2-.3-.7-1-1-1.4,0-.2-.2-.6-.2-.6,0,0-.2,0-.2,0-.3-.3-.4-.7-.6-1.1-.1-.2-.3-.5-.4-.7-.2-.4,0-.4,0-.5,0-.1-.4-.2-.2-.5h-.2c0-.3-.2-.5-.3-.7,0,0-.1,0-.2,0-.2-.2-.7-1.3-.8-1.6,0-.1-.2-.2,0-.4h-.2c.1-.4,0-.5-.1-.6,0,0,0-.2,0-.3,0-.3-.5-.7-.4-1h-.1c0-.2,0-.2-.1-.3-.2-.4-.3-.8-.4-1.1-.2-.4-.6-.7-.4-1.1l-.4-.2v-.2c-.1-.2-.1-.6-.2-.8,0-.2-.3-.3-.2-.6h-.2c0,0,0-.3,0-.3h.1c0-.2,0-.5-.3-.4.2-.4-.3-.6-.3-1h-.2c0,0,0-.2,0-.3,0,0-.2-.6-.2-.7,0,0-.3-.2-.2-.4h-.2c0,0,.1,0,.1-.1,0,0-.2-.6-.2-.7,0,0-.2,0-.2,0,0,0,0-.2,0-.2,0,0-.2-.1-.3-.3-.2-.6-.3-.5-.5-1,0,0,0-.2,0-.3,0-.2-.6-1-.7-1.2,0-.2-.3-.5-.3-.5,0-.2,0-.5,0-.6,0,0-.2-.2-.3-.3-.2-.4-.3-.8-.5-1.2,0-.2-.3-.2-.2-.5h-.1c.1-.2-.3-.3-.4-.5,0,0,0-.3,0-.4,0,0-.2-.3-.3-.3,0-.1,0-.5-.2-.5v-.2c0,0-.2,0-.2,0h.1c0-.3-.2-.4-.1-.7h-.2c.1-.2-.1-.3-.2-.4s0-.2,0-.3-.3-.3-.3-.5h-.2c.2-.4,0-.2-.2-.5,0,0,0-.2,0-.3,0-.2-.3-.3-.2-.5h0c0,0-.2,0-.2,0,0,0,.1-.3.1-.3,0,0-.3,0,0-.4h-.2c0-.3-.2-.3-.2-.6h-.3c0,0,0-.3,0-.3h-.2c.3-.3-.2-.6-.1-1h-.2c0,0,.2-.3.2-.3h-.1s0-.1,0-.2c0-.3,0-.2-.2-.4s0-.6-.1-.8h-.2v-.7c0,0-.2-.1-.2-.1h.1c0-.1,0-.7,0-.7l-.2.2v-.4c0,0,0,0,0,0,0-.1,0-.4,0-.5,0,0-.3-.2-.3-.2,0,0,0-.1,0-.2,0-.2-.2-.3,0-.5h-.2c0,0,0-.4,0-.5,0,0-.3-.2-.3-.3,0-.2.2,0,.1-.2-.2,0,0-.3-.2-.1v-.2c0,0,0-.1,0-.2-.2-.6-.3-.9-.4-1.5,0-.1,0-.3,0-.5,0,0-.2-.1-.2-.3v-.2c-.1,0-.1-.3,0-.5h-.2v-.5h-.2c0,0,.1-.3.1-.3h-.2v-.6l-.3-.2h.1c0,0-.2-.2-.2-.2l.2-.2h-.2c0-.1.4-.2.4-.2-.5,0-.3,0-.4-.2,0,0-.3-.3-.3-.3,0,0,0-.2,0-.4,0,0-.2-.2-.2-.2,0,0,0-.2,0-.4,0-.2-.3-.4-.4-.6,0,0,0-.1,0-.2h-.2c.1-.2,0-.2,0-.2,0,0-.1-.4-.1-.4-.1-.2-.2-.5-.5-.4h0c0-.1.1-.2.1-.2-.1,0-.3-.1-.4-.2,0-.2.3,0,.2-.2l-.2-.2h-.2c0-.1-.1-.2,0-.4h-.2v-.2s-.2,0-.2,0v-.2s-.2,0-.2,0c.2-.2,0-.3-.1-.5h-.2c0-.1-.2-.6,0-.7,0,0,.2,0,.2,0h-.2c0,0-.1,0-.1,0h0c0-.1,0-.4,0-.4h-.2c0,.1,0-.3,0-.3h-.2c0,0,0-.3,0-.4,0,0-.2-.3-.2-.4,0-.2,0-.4-.1-.6h-.2c.2-.1.2-.2,0-.4.1,0,.1,0,.1-.1l-.3-.2v-.2c0,0-.3-.4-.2-.5h-.2c.1-.3,0-.3-.2-.5v-.3c.1,0-.2-.1-.2-.1.1-.3,0-.3-.1-.5,0-.2-.2-.5-.2-.7h-.2c.1-.2,0-.3-.1-.5,0-.1,0-.4,0-.5,0,0-.3,0-.3-.2,0-.2,0-.5,0-.5,0,0-.1-.1-.1-.2,0-.1,0-.3,0-.5h-.2c-.2-.3.1-.5,0-.8l-.2.2c0-.2,0-.2,0-.4h.1c-.1-.2,0-.4-.2-.5.2,0,0-.1,0-.2,0-.2-.1-.2-.1-.2,0,0,0-.2,0-.3.2,0,.2,0,.3-.1v-.2c.3,0,0,.2,0,.4l.2-.2v.2s.3-.1.3-.1c-.1.3-.1.4,0,.7h.4s-.4-.2-.4-.2h.2s0-.4,0-.4h.1c0,.1.1,0,.1,0l-.2-.2h.6c0,0,0-.2,0-.2v.2c.2.1.2,0,.2,0,0-.1,0-.2,0-.4h-.2v-.2h-.2c0,0,0,0,0,0l.4-.2v.2c0,0,.1-.2.1-.2h.2l-.2.6.2-.2v.2c0,0,.1,0,.1,0v.4l.2-.2v.2h.4v.2c.1.3.3.6.6.8h-.1c.2.2.2.5.2.7h.3s0,.1,0,.1c0,.3.2.5.2.7,0,.1,0,.2,0,.4,0,.3.3.1.4.2.1.1,0,.5,0,.5h.2c0,0,0,.3,0,.4,0,0,0,0,0,.2,0,.2.1.1,0,.4h.2c-.1.4.2.5.2.7.1.5,0,.4.4.9,0,0,0,.4,0,.4h.2c0,0,0,.4,0,.4h.1s-.1.2-.1.2h.2c0,.3.2.3.3.5.1.2-.2,0-.1.1.2,0,0,.1.1.2,0,0,0,0,0,.2h-.1c0,0,0,.3,0,.3l.2-.2v.4c0,0,0,0,0,0,0,.2.3.3.1.5h.2v.3c-.1,0,0,0,0,0-.2.3,0,.2.1.3,0,.1,0,.2,0,.3.2-.1.2,0,.4.2h-.2s0,.2,0,.2h.4c0,0-.2.2-.2.2l.2.2h-.2s0,.2,0,.2c-.3,0-.2.3-.4.4h.3c0-.1,0-.3,0-.3h.2c0,0,.2-.4.3-.3v.4c-.1,0,0,.2,0,.2h.2l-.2.3.3.3v.3c-.1,0,0,0,0,0l-.2.2c.1.3.2.1.3.2.2.1,0,.4,0,.5.1.1.2-.1.3.2,0,.2-.2,0-.1.1,0,.2,0,.2.2.2l-.2.2h.2c0,.2,0,.7.3.6v.2h.1c0,.1-.1.2-.1.2l.2.3h-.2s.1.2.1.2h0v-.2c0,0,.2.4.2.4,0,0-.2.3,0,.5l.2-.2c.1.3,0,.4-.2.7l.2-.2v.2c0,0,.2-.2.2-.2-.1.4.2.6.2,1h.2c0,0,0,.2,0,.2h.2c-.2.2,0,.3,0,.6h.2c0,0,0,0,0,0v.2c.3-.2.2.3.2.4,0,0,0,0,.1,0,.1.2.2.3,0,.5h.3v.2c0,0,0,.3,0,.4s.2.2.3.5c0,.2.1.6.2.7s.2,0,.2.2c0,0,0,.2,0,.4,0,0,.1,0,.2,0,0,0,.2.3.2.5h.2c0,0-.2.2-.2.2h.2v.3c0,0,.3,0,.3,0,0,.1,0,.6,0,.7,0,0,.2.1.2.2s0,.3,0,.5c0,.2.3.2.2.5h.2v.2c-.1,0,.1.3.1.3h-.1c.2.3.3.8.3,1.1h.2c0,.1,0,.5,0,.5h.2v.4c.4-.2.2.2.2.4,0,.2.2.5.3.6v.2c-.1,0,0,0,0,0,0,0,.1.6.2.7,0,0,.2,0,.2,0,0,0,0,.1,0,.2,0,.1.1.3.2.4h-.1c.2.3.5.5.4.8h.2c-.2.3,0,.2.1.4,0,0,0,.2,0,.3,0,.2.2.3.1.6h.1c0,0,0,.4,0,.4.3,0,.2.2.3.3.2.2.3.2.2.6h.2v.2s0,0,0,0c0,.2.2.5.3.7.1.2,0,.7.3.8v.2c0,0,.1,0,.1,0v.2c-.1,0,0,0,0,0,0,.3.1.5.4.7l-.2.3c.4,0,.3.4.4.6,0,.1.5.4.4.7h.2c0,0,0,.2,0,.3h-.1c.3.3.2.6.4.9h.2c0,0-.1.3-.1.3h.2c-.1.2,0,.7.2.8-.2.3.1.2.2.4,0,.1,0,.3,0,.3h.2c-.1.3,0,.2.1.3.3.3.2.5.3.7,0,0,.3.2.3.4.2.4.2.6.4,1,.2.4.4,1.4.6,1.8,0,0,.3,0,.2.4h.3v.3c-.1,0,0,0,0,0-.2.3,0,.3.1.5,0,.1,0,.2,0,.3,0,.2.2.2.2.2,0,.3-.2,0-.2.2.4,0,.2.2.4.3h-.1s0,.2,0,.2h.2c0,.2.1.2.2.3,0,.2.3.9.3.9,0,.1,0,.2,0,.4h.1c-.2.3,0,.3.1.4s0,.5.3.4c0,.2,0,.5.2.4v.2c0,0,.2,0,.2,0h0c.3.2.2.4.2.6,0,0,.1,0,.2,0,0,0-.2.2-.1.2h.2-.2v.2s0,0,.1,0c.1.3.3,1,.5,1.3,0,0,.2,0,.2.1,0,0,0,.3,0,.4h.2c0,0,0,.2,0,.2h-.1c.1.1.2.3.2.4.2.2.2.2.3.5,0,.2,0,.6.3.6h0c0,.1-.1.2-.1.2,0,0,0,0,.1,0,.3.5.3,1,.7,1.5.2.2.2.4.4.7.2.5.4.9.5,1.3.2.7.3.9.7,1.4,0,0,0,.2,0,.3,0,0,0,0,.2,0,.2.2.2.4.3.6s.2.6.4.7c-.2.3,0,.2,0,.3.2.3.2.5.3.8,0,0,.2.1.2.2,0,0,0,.1,0,.2,0,.2.2.3.2.5h.1c.1.3.2.8.4,1.1,0,.2.8,1,.9,1.1,0,0,.4.1.4.2,0,0,0,.1,0,.2,0,0,.3,0,.3,0,0,0,0-.1.1-.2.3-.2.3-.3.5-.7.6-1.1,1.1-2.2,1.5-3.3.5-1.2.7-2.8,1-4.1.2-.6.6-1.4.7-2,.1-.5,0-.9.3-1.4.3-.8.6-1.8.8-2.5.2-.5.3-1,.5-1.5,0,0,.1,0,.1,0,0-.3,0-.7,0-1h-.2c-.2,0,0-.2,0-.2,0,0-.1,0-.2,0-.4-.4-1-.6-1.2-.9-.1-.1-.2-.4-.2-.4-.5-.4-1.1-.8-1.5-1.3,0,0-.2-.2-.2-.2,0,0,0-.2,0-.2,0,0-.5-.3-.7-.4-.2-.1,0-.2-.3-.2v-.4c0,0-.2.1-.2.1,0-.5-.7-.8-1-1.2,0,0,0-.2,0-.2,0-.2-.5-.2-.4-.5h-.2c-.2,0-.1-.3-.3-.4,0,0-.5-.2-.5-.2,0,0,0-.3-.2-.4-.1-.2-.4-.2-.5-.4,0,0,0-.2,0-.2,0,0-.2,0-.2,0,0,0,0-.2,0-.3,0,0-.3-.5-.3-.5,0,0-.2,0-.2,0,0,0,0-.2,0-.2,0,0-.1,0-.2,0-.1-.1-.3-.4-.2-.5h-.2c-.2-.4-.6-.7-.8-1.2h-.2s0-.4,0-.5c-.3-.5-.7-1.1-.9-1.6,0-.1-.1-.2,0-.4h-.2v-.2c.1,0-.1-.2-.1-.2.3-.3-.2-.5-.4-.8h.2s0-.2,0-.2h-.2v-.5h-.3c0-.3-.3-.8-.4-1,0-.1,0-.3,0-.3s-.3-.1-.4-.3c0-.3,0-.5-.2-.6h.2c-.3-.2-.3-.5-.2-.7h-.2c0-.1.1-.3,0-.3v-.2c0,0-.1,0-.1,0,0-.3.1-.6-.1-.8v-.3c.1,0,0,0,0,0,.2-.3,0-.4,0-.4,0,0,0-.3,0-.4,0,0-.1,0-.2-.1,0,0,0-.7,0-.8h-.2c0,0,.2-.3.2-.3l-.3-.2v-.2c.1,0,0,0,0,0,0-.2,0,0,.1-.2h-.2c0-.1.2-.2.2-.2-.3,0-.1-.3-.2-.5,0-.2-.2-.4-.2-.6h-.2v-.2c0-.1-.1-.2,0-.3h.2s-.2,0-.2,0c0-.3-.2-.6,0-.9h-.2c.1-.2-.1-.5.2-.7,0,0-.2-.2-.2-.2,0-.1.2-.2-.2-.3h.2c0,0-.2,0-.2,0,.1-.2.2-.3,0-.6h.2s-.1-.3-.1-.3h-.2c.2-.2.4-.5,0-.7,0-.2.2,0,.1-.3h-.1c0,0,.1-.2.1-.2-.2,0-.2-.5-.2-.6,0,0,.2,0,.1-.2h-.1.1c0,0-.1-.4-.1-.4h.1c-.1-.3-.2-.5,0-.8h-.2c0-.2.2-.2.3-.2l-.3-.5h.2s0-.2,0-.3c0-.2,0-.2-.1-.4,0-.1-.1-.2,0-.4.4,0,0-.2,0-.4,0-.1,0-.4,0-.6h-.1s.1-.3.1-.3h-.2s.2-.2.2-.2v-.2c.1,0,.1-.3,0-.4v-.2c0,0-.1,0-.1,0l.2-.2-.2-.4c0,0,.2-.4.2-.5s0-.1,0-.2c0-.2,0-.4,0-.5h-.2c.3-.2.1-.6.2-.9h0c0,0-.2,0-.2,0v-.2h.2c0,0,0-.2,0-.2h-.2s0-.2,0-.2h.2v-.2h-.2c.2-.1,0-.4,0-.6,0,0,.2-.1.2-.2h-.2c0,0,0-.2,0-.2h.2c0,0-.1-.2-.1-.2h.2s-.2-.2-.2-.2c.3-.2.2-.4.2-.6,0,0,.1-.1.1-.2,0,0,0-.3,0-.4h-.2c0,0,0-.4,0-.4h.1v-.2c-.1,0,0,0,0,0-.1-.2,0-.3,0-.5,0-.2-.1-.5.2-.7h-.2s0-.4,0-.4h.1c-.3-.3,0-.3,0-.5,0,0-.1-.2-.1-.2s.1-.1.2-.2-.2-.2,0-.4v-.2c-.1,0,0,0,0,0,0,0-.3-1,.2-.9-.2-.4,0-.7,0-1.1h.2c0,0-.1-.3-.1-.3h.1s0-.5,0-.5h.1s-.1-.1-.1-.1c.2-.3.1-1,.5-1.1h-.2c0-.1.1-.2.2-.3,0-.2-.2,0-.1-.1s.3,0,.1-.5h.2c0-.2.2-.3.1-.5.4.2.2-.1.2-.2.2,0,.3-.3.4-.4,0,0,.3,0,.2-.2h.2s0-.2,0-.2c.2.1.3-.2.5-.2.2,0,.5.1.8-.2.2.3.6,0,.8,0s.3.2.5.1v-.2c0,0,.1.2.1.2.2,0,.3,0,.5-.1,0,0,0,.2.2.1h0c.2.1.4,0,.7,0v.2c.2-.2.5-.2.8-.2h0c0,.1.2.1.2.1h0c0-.1,0,.1,0,.1.2,0,.3-.1.4-.1.2,0,.5.3.8.1v.2c0,0,.2-.1.2-.1l.2.3h0c.2-.2.1,0,.2,0,.2,0,.3,0,.4.3h.3c0-.1,0,0,0,0,.3,0,.3,0,.6,0v.2c.2-.2.2.2.3.2.2,0,.7.2.9.3.2.1.5.4.7.4h0c0,.1.3,0,.3,0v.2c.2,0,.4,0,.4.2h.2c0,.1,0,.2.2.3h.3c0-.1,0,.1,0,.1.2.1.5.2.7.4.2.1.6.4.7.5,0,0,.3,0,.4,0,.5.3.9.6,1.3.9.1.1.2.2.4.1v.2c0,0,.3,0,.3,0,0,.4.5,0,.4.5h.2c0,.3,0,.1.2.1,0,0,.5.3.7.4.1,0,.2,0,.3.2.2.3.3.3.6.5.2.1.3.5.6.4v.2c0,0,.3,0,.3,0v.3c0,0,.2,0,.2,0v.4h.4c0,0-.1.1-.1.1l.5.3c.3-.3.3,0,.4.1,0,0,.2,0,.2,0,0,0,0,.1,0,.2,0,0,.3.1.4.2.1.1.2.4.4.6,0,0,.2,0,.3.1,0,0,0,.2,0,.2,0,0,.4.2.4.2,0,0,0,.1,0,.2,0,.1.2,0,.3.1,0,0,.2.5.3.5s.5.1.6.2c0,0,.3.3.2.4h.3v.2c-.1,0,.2.1.2.1v.3c.3,0,.2,0,.3.2.4.5.5.3.9.6.2.1.4.5.6.5v.2c0,0,.3,0,.3,0,0,0-.2.4.2.2v.2h.2v.2c.3.1.4.8.8.5v.3c0,0,.1,0,.1,0h0c0-.1.2-.1.2-.1v-.2c.4.1.4-.5.3-.8.3.2.2-.3.3-.5.2-.6.4-1.3.6-1.9.4-1.1.7-2.3,1.1-3.4.2-.6.4-1.2.6-1.8,0-.1,0-.5,0-.5,0,0,.1,0,.2,0,0,0,0-.1,0-.2,0-.2.3-.4.2-.7h.2c-.1-.3,0-.7.2-1,.5-1.2.9-2.6,1.4-3.9.2-.5.4-.5.6-1.1,0-.1.2-.2.2-.3,0-.1,0-.2,0-.3,0-.1.3-.2.2-.4h.2c.2,0,0-.3,0-.4,0,0,.1,0,.2,0,0,0,0-.4.2-.4v-.2c0,0,0,0,0,0,0-.2.2-.3.3-.4,0,0,0-.5,0-.5,0,0,.3-.1.2-.4h.2v-.2c0,0,.1,0,.1,0v-.2c-.1,0,.1,0,.1,0v-.3c0,0,.1,0,.1,0,0-.2.1-.6.2-.8.2-.4.6-.7.8-1,0-.1.4-.8.4-.9,0,0,.4-.1.4-.4h.2c0-.1,0-.2.2-.2v-.4c0,0,.1,0,.1,0,0,0,0-.3.2-.2v-.2c0,0,.2,0,.2,0v-.2c.3.2.2-.2.3-.2,0,0,.2,0,.2,0,0,0,0-.1,0-.2,0,0,.2-.2.3-.2,0,0,0,0,0-.2.1-.2.7-.6.9-.4,0-.4.4,0,.6-.4h2.7,0ZM90.6,10.5c.2-.4-.3-.4-.6-.5v.2c-.1,0-.2,0-.4,0v.2c0,0-.2-.1-.2-.1v.2c-.3-.1-.2.2-.4.1v.2c0,0-.1,0-.1,0v.3c-.3,0,0,.6-.6.5v.2c-.2,0-.4.3-.6.5h.2c0,.2-.2.2-.4.1v.2c0,.1-.3.1-.4.3,0,.1,0,0-.1.3-.1.2,0,.3-.4.3,0,0,.2,0,.1.2,0,0-.1,0-.2,0-.3.3-.4.5-.6.8,0,.1-.3.1-.1.4h-.2c0,0,0,.2,0,.3-.3.7-1,1.4-1.3,2.1,0,0,0,.1,0,.2,0,0-.7.6-.7.7,0,0,0,.2,0,.3,0,.3-.4.5-.5.9-.1.2-.3.6-.4.9,0,.2-.1.5,0,.6h-.2s0,.3,0,.4c0,0-.2,0-.2.1-.2.9-.6,1.4-.9,2.3,0,.2-.1.6-.3.5.2.4,0,.4-.2.6-.4,1-.6,2-1.1,3,0,.1-.2.4-.2.4,0,.1,0,.3-.1.4h.1c-.2.2,0,.4-.1.6h-.2c.2.2.2.3,0,.5h.1c0,.2,0,.1-.1.2-.2.2-.2,1-.3,1.3,0,.1-.1.2-.1.3,0,.4-.1.8-.2,1.2,0,0-.2.1-.2.2.3.1,0,.6-.2.8h.1c0,.2-.1.1-.1.2,0,.2,0,.3,0,.5s0,.1,0,.2c0,0,0,.3,0,.3,0,0,.2,0,.3,0,.2.1.7,1.2.9,1.2,0,0,.2,0,.2,0v.2c.3-.1.3.4.5.5,0,0,.5.1.5.4h.2c0,0,0,.1,0,.1h.2v.2c0,0,.2,0,.2,0,.2.4.7.6.8,1h.2c0,.4,0,.2,0,.3,0,0,.2.3.2.3,0,0,.4,0,.4,0v.2c.2-.1.1,0,.2,0,0,0,.1,0,.1,0,0,0,0,.2.1.3.1.2.4.2.3.4.3,0,.7.3.6.6h.2c0,.2.1,0,.3.2.2.1.1.4.4.3v.2c0,0,0,0,0,0v.2c.2,0,.3.3.5.3h0c0,.1.2.1.2.1,0,.2.3.3.5.3.3,0,.1-.2.2-.2,0-.1.2-.2.3-.4,0-.2-.1-.2,0-.4h.2c0-.1,0-.4,0-.6,0-.5.3-.6.3-1.3,0-.4,0-.4.1-.7,0-.1,0-.3,0-.4h.1c0,0,0-.4,0-.4h.2c0,0,0-.2,0-.2h-.2c0,0,0-.2,0-.3,0,0,.2-.1.2-.2,0,0,0-.6,0-.8,0-.2.3-.2.1-.6h.1c0,0,0-.3,0-.4,0-.1.2-.2.2-.3,0-.2-.2-.3-.1-.5h.3v-.8c.3-.3.2-.8.1-1.2h.1c0-.1-.2-.1.1-.3-.2-.3,0-.2,0-.2.1-.4,0-1.1,0-1.5,0-.1,0,0,.1-.1,0-.2-.3,0-.2-.1,0-.1.2-.2.2-.3,0,0,0-.5,0-.7,0-.2-.2,0-.2,0,0-.1.2-.2.4-.2-.2-.2-.3-.5,0-.7h-.1c.3-.3.2-.5,0-.7h.2c0-.5,0-1.1,0-1.6-.2,0,0-.1,0-.3,0-.2-.2-.5.2-.6l-.3-.3h.2c0-.3,0-.5,0-.7-.3-.1,0-.2,0-.2s0-.3,0-.4c0,0-.1,0-.1,0,0,0,.1-.2.2-.3,0-.1-.1-.5.2-.7h-.2c.4-.3,0-.9.4-1-.3-.3,0-.2,0-.4,0-.3-.1-.5-.2-.6,0,0,0-.1,0-.2,0-.2-.3-.6.2-.6l-.2-.2c0-.2,0-.4.2-.6v-.2c.2-.2,0-.6,0-.9h.2l-.2-.2s0,0,.1-.1c0-.3,0-.9,0-1.2,0,0,.1-.1.2-.2,0-.1,0-.3,0-.4,0,0,.2-.4.2-.6,0,0,0-.2,0-.2h.1c0,0,0-1,0-1,.3-.1,0-.3.1-.4,0,0,.2,0,.2-.2,0-.1,0-.3,0-.4,0,0,.1-.1.2-.2,0-.2-.3,0-.2-.1.4-.2,0-.6.2-.9h-.1c0-.1.1-.3.1-.3-.2,0,0-.1,0-.3,0,0-.2-.6-.2-.7,0-.1-.3-.1-.2-.4l-.2.2h0ZM51.4,20.3c-.2-.2-1,.3-1.2.2,0,.2,0,.4-.2.4v.3h-.2s.2.3.2.3l-.2.6c.3.1,0,.1,0,.2,0,.1-.1.2-.2.2,0,0,.1.1.1.2,0,.1-.2.4-.3.5h0c0,.1-.2.3-.2.3h.1c0,.1,0,.2,0,.2,0,0,0,.2,0,.3,0,.2-.2.4-.2.7h.2c0,.4-.1.3-.2.4,0,.1,0,1,0,1.3,0,.1-.2.2,0,.4l-.2.2v.2c.1,0,0,0,0,0l.2.4h-.2c0,0,.2.1.2.1,0,0-.2,0-.2.1,0,0,0,.6,0,.7s0,.2,0,.3c0,0-.2.1-.2.2s0,.2,0,.3c0,.2,0,.6-.2.7h.2c-.2.6,0,1.6,0,2.1,0,.1-.2.3-.2.5,0,0,0,0,.1,0,0,0,.2.3.2.4,0,.2-.2.1-.3.3h.2v.2c-.1,0,0,.2,0,.2h-.1c.2.2,0,.7,0,.7,0,0,.5.2.1.4v.3c.1,0,0,0,0,0v.2c.1,0,0,0,0,0,.4.3,0,.4.2.7,0,.2-.3,0-.2.1s.2.2.2.3c0,0,0,.2.2.3h-.2c0,.1.1.1.2.2,0,.1,0,.5-.2.4h0c.3,0,.1.5.2.7,0,0-.3,0-.2.2h.2c0,0,.1.2.1.2h-.2c.3.1,0,.2,0,.3h.2c0,.3,0,.7,0,1,0,0,0,0,0,0,0,.1,0,.3,0,.4h-.2c0-.1,0,.2,0,.2h.2c0,0,0,.2,0,.2.3.1.1.1,0,.2,0,.3,0,.2.1.4,0,.2,0,.3,0,.5h-.2c0,0,.2.1.2.1v.3c0,0,.1,0,.1,0v.6c0,0,.1,0,.1,0,0,.1,0,.3-.2.2h0c0,0,.2.3.2.4,0,.3,0,.5,0,.8,0,.4,0,.8.4,1-.1,0-.2,0-.2.3h.2v.5s.2,0,.2,0l-.2.2h.2c0,.3,0,.6.2.8h-.1c.3,0,.2.3.2.5,0,0,0,.4.1.5,0,.2.3.3.2.6h.2v.4h.1c0,0,0,.2,0,.2h-.1c0,0,.1.2.1.2h-.1c.6,0,0,.7.5,1h-.1c.4.3.2.3.2.5s.3.5.3.5c.1.3,0,.2.2.5,0,0,.1.5.1.6,0,.4,0,.2.2.3,0,0,.2.4.2.5,0,0,0,0,.1.1,0,0,0,.3,0,.3,0,0,.2,0,.2,0,0,0,0,.2,0,.3.2.4.6.8.8,1.2,0,0,0,.3,0,.3,0,0,.5,0,.1.2,0,0,.2,0,.2,0,0,.1,0,.3.1.4,0,0,.1,0,.2,0,.2.2.2.4.3.6h.2c-.1,0,.1.1,0,.4h.2c-.2.3.2.2.3.3,0,0,.2.7.6.5l.2.6h.2c-.2.2.2.3.3.5.1.1,0,.3.3.2v.2c.2,0,.2.3.3.4,0,0,.4,0,.4.4.2-.2.3.2.5.4.2.2.7.5.9.7v.2c.2-.1.5.2.6.3,0,0,0,.2,0,.2,0,0,.2,0,.2,0,.2.1.3.4.6.3v.2c0,0,.1,0,.1,0,0,.3.2.3.4.5.2.2.7.5.6.8.1,0,.4-.1.4-.1,0,0,.1.2.3.2.1,0,0-.2,0-.2s.2,0,.2-.2c0-.2,0-.4,0-.6,0,0,.5-.8.6-1.2,0-.1,0-.3,0-.3,0,0,.1,0,.2,0,.2-.3.3-.9.4-1.2,0-.1.2-.2.2-.2,0-.1.1-.6.2-.7.2-.3.1,0,.2-.5.2-.6.3-.9.5-1.3,0-.2.1-.3.2-.5.4-.7.6-1.6.8-2.3.1-.3.5-1.2.7-1.3,0,0,.1,0,.1,0,0,0-.1,0-.1-.2,0,0,.2-.3.1-.5h.2c0,0,0,0-.1-.2.2-.2.2-.5.3-.7,0,0,0,0,0,0,0-.2.2-.6.2-.8h.2c.1-.5.3-.9.6-1.3,0-.4.4-.8.4-1.2h.2c0,0,0-.4.1-.5,0-.3.1-.4.2-.7.2-.5.4-.7.5-1.3,0,0,.3-.4.3-.5.2-.5.4-1.1.6-1.6,0-.2.3-.4.3-.7h.2s0-.6,0-.6h.2c0-.5.3-1.2.5-1.7,0-.1.2-.2.1-.4h.2c0,0,0-.3,0-.3h.2s0-.7,0-.7h.2c0,0,0-.2,0-.2,0-.4.4-1.1.5-1.3.1-.3.1-.5.2-.8.2-.6.2-.6,0-1.1,0,0,0-.1,0-.1,0,0-.3,0-.2-.3h-.2v-.3h-.2c0,.1,0-.2,0-.2-.2.1-.5-.1-.4-.3,0-.1-.5,0-.3-.4-.3,0-.5-.2-.6-.4,0,0,0-.2,0-.2,0,0-.3-.2-.4-.2,0,0,0-.1,0-.2h0c0,.1-.3-.2-.3-.2v-.2c0,0-.1,0-.1,0v-.3c0,0-.4,0-.4,0v-.2s-.2,0-.2,0v-.2c-.2,0-.3-.3-.4-.4-.1,0-.3,0-.4,0-.4-.2-.6-.9-1-1v-.2c-.3.1-.4-.1-.5-.3-.4-.4-.6-.7-1.1-1-.2-.1-.2-.4-.5-.3v-.2c-.2,0-.3-.5-.6-.3.1-.3-.2-.3-.2-.3,0,0,0-.1,0-.2,0-.2-.1.2-.2,0v-.2h-.3c0-.4,0-.2-.3-.3,0,0-.2-.2-.2-.2l-.2.2v-.2c-.2,0,0-.1-.2-.2-.2-.2-.4-.1-.4-.1,0,0,0-.2-.2-.3-.2-.1-.7-.1-.8-.4,0,0,0-.2,0-.2,0,0-.4-.1-.5-.2s-.4-.4-.5-.4c-.4-.2-.1-.1-.3-.3-.1-.1-.5-.2-.7-.3-.2-.1-.2-.4-.4-.3h0c0-.1-.2,0-.2,0,0-.1-.2-.3-.3-.4-.1,0-.2,0-.3,0-.1,0-.3-.3-.4-.4-.1-.1-.5-.1-.5-.4-.3.1-.2,0-.3-.1,0,0-.2,0-.3-.1,0,0,0-.2,0-.2,0,0-.2,0-.2,0,0,0,0-.1-.2-.2-.2-.1-.3-.2-.5-.3-.1,0-.3-.2-.3-.3-.2,0-.5.1-.6-.3h-.2c0,.1,0-.1,0-.1-.3,0-.4-.2-.6-.1h0c-.2-.1-.5-.4-.6-.4-.1,0-.2,0-.4,0-.2,0-.4-.2-.7-.1v-.2c0,0-.1,0-.2-.1-.3,0-.9,0-1,0-.2,0-.2-.2-.5,0h0c-.2.1-.3-.1-.4-.1-.1.3-.1,0-.2,0h0ZM31.5,34.9c.4.1.2-.1.4-.2l-.2-.2h.2c0,0-.1-.3-.1-.3l.4.4-.4-.7c0-.3.2-.2.2-.5-.4.3-.4-.2-.8-.2.2-.2,0-.3,0-.4s.1-.2.1-.3l-.2.2c0-.2-.3-.5-.5-.5l.2-.2h-.4c-.2,0,.1.1.1.3h-.2v-.2c-.1,0-.3.2-.1.3,0,0,.2,0,.3.1h-.2c0,0,.2.2.2.2h-.4s.4,0,.4,0h-.4c0,.1.2.2.2.2v.6c0,0,.3-.2.3-.2v.3h-.1s0,.3,0,.3h.2c0-.1,0,.1,0,.1h.3c0,0-.3-.3-.3-.3.1,0,.3,0,.4,0,.2.2,0,.3,0,.4,0,.1,0,.5.1.7-.4-.1,0-.4-.2-.6,0,0-.4,0-.4-.2v.3h.2c-.1.2-.4,0-.6.2l.2.4.2-.2v.3-.5c.1,0,.2.5.2.5,0,0,.1.2.1.2,0,0-.1.1-.1.2h.2c0-.1.2,0,.2,0v-.2c-.1,0,0,0,0,0,0-.2,0-.3,0-.4h0ZM77.2,38.7s0,0-.2,0c0,0-.1-.1-.2-.2-.3,0-.5,0-.7.3v.2c.1,0,0,0,0,0,0,.2-.3.4-.3.4,0,0,.1.1,0,.2,0,.1-.2.3-.3.4,0,0,0,.2,0,.2-.1.3-.4.6-.3,1h-.1c.1.2-.3.5-.3.6,0,.1,0,.2,0,.3,0,.2-.3.4-.2.6h-.2v.5c0,0-.3,0-.3,0,.2.7-.2,1.2-.4,1.8-.3,0-.1.2-.2.3,0,.3-.5,1.4-.7,1.7,0,.2-.3.2-.3.3h.2s-.1,0-.2.2c0,.2,0,.5-.2.8,0,0-.2,0-.2,0s.1.2,0,.3c0,0-.2,0-.3.2,0,.1,0,.2,0,.3,0,.2-.3.3-.2.6h-.2c0,0,0,.3,0,.3h-.2c.2.3,0,.6-.2.9,0,.2,0,.3-.2.5,0,.2,0,.4,0,.5,0,0-.2,0-.2,0,0,0-.2.5-.2.6,0,0,0,.2,0,.3h-.2c.2.3-.1.3-.2.5-.1.3-.2.6-.2.9,0,.1-.3.4-.3.5-.3.5-.4,1.2-.7,1.8-.2.5-.5,1-.7,1.6,0,.1-.1.6-.1.6,0,.1-.3,0-.2.4h-.2c0,.2-.1.4-.2.6-.2.4-.3.8-.5,1.2-.2.5-.6,1.1-.5,1.6-.3,0-.2.5-.3.6,0,0-.2,0-.2.1,0,0,0,.1,0,.2-.2.6-.6,1.2-.8,1.7,0,.2,0,.6-.2.8h.3c0,.4,0,.4.2.5,0,0,0,.2.3.1,0,.4.1.2.2.2,0,0,0,.2.2.1h0c.2,0,.3.2.5.3v.2c0,0,.3,0,.3,0v.2c.1,0,.3,0,.4.2h-.1s.2.2.2.2h0c.1,0,.1.1.2.2.2.2.7.6.9.7,0,0,.2,0,.2,0h-.1c0,.2.3.2.4.2,0,0,0,.1,0,.2,0,0,.4.2.5.2v.2l.2-.2c.1.2.3.2.5.3.2.2.6.6.9.7,0,0,.2,0,.2,0,.2,0,.2.5.5.3v.2c.4,0,.5.6.9.4-.2.4.3.3.4.4,0,0,0,.1.1.2,0,0,.2,0,.3,0,0,0,0,.2,0,.2,0,0,.1,0,.3,0,.2.1.4.4.5.5s.6.2.7.3c0,0,.1.3.3.3v.2c0,0,.2-.1.2-.1,0,0,.1.2.2.3.3.2.7.2.9.3.2,0,.3.3.5.2v.2c0,.2.1,0,.2,0,0,0,.2.3.4.2v.2c.3-.1.5.4.9.2v.2c.1,0,.2,0,.2-.1h.1c0,.1.1.3.2.2v-.2c.2.2.1.3.4.2v.2c.1,0,.3,0,.3,0v.2c0,0,.4,0,.5,0,.1,0,.2.3.5.2v.2c0,0,.2,0,.2,0h0c.3,0,.3.3.4.3,0,0,.4,0,.6.1.2,0,.3.2.3.2.2,0,.5,0,.7.2,0,0,0,0,0-.2s0-.6,0-.7c0,0,0-.5,0-.6,0-.2-.4-.7,0-.8v-.2c-.1,0,0,0,0,0,0-.3-.3-.7-.1-.9-.4-.3,0-1.5-.2-1.8,0,0-.1,0-.2,0,0,0,.2-.3,0-.5h.2c0-.4-.2-.2-.3-.4.1,0,.4,0,.3-.1h-.2s-.1-.1-.1-.1h.2c0-.1-.2-.3-.2-.3l.2-.2v.2s.2,0,.2,0c-.2-.2-.3-.4,0-.5h-.2c.1-.2,0-.4,0-.5,0,0,.1-.1.2-.2,0,0,0-.6,0-.7,0,0,.2,0,.2-.2h-.2s.2-.2.2-.2c-.3-.3.2-.4,0-.7h.1c-.2-.3-.2-1,.2-1.2h-.2c0,0,.2-.3.2-.3h-.2s0-.4,0-.4h.1c0,0,0-.4,0-.4h.2c-.3-.3,0-.5,0-.8,0-.2-.2-.5.2-.5h0c0-.1-.2,0-.2,0,0-.2,0-.3.2-.4-.2,0,0-.2-.2-.4h.2c-.1-.2.2-.3,0-.6h.2c0-.3,0-.6-.1-.9h0c0-.1.2,0,.2,0-.1-.2-.1-.2,0-.5-.3-.1,0-.1,0-.2.2-.2-.1-.3,0-.5h.4c0-.2-.5.1-.4-.2h.2c-.2-.3.5-.5,0-.6v-.2c.1,0,0-.2,0-.2h.2s0-.2,0-.2h-.2c.1,0,.2-.2.2-.4,0-.2-.2-.2-.2-.5h.2c-.1-.2-.1-.5.1-.8h-.2c0-.3,0-.3.3-.5l-.2-.2h.3v-.2h-.2c0,0,.2-.2.2-.2h-.1c0,0,.1-.2.1-.2-.2,0,0-.3,0-.4s-.2,0-.2-.2h.2s-.2-.2-.2-.2h.1s-.1-.2-.1-.2c.4-.2,0-.8.4-1-.2,0-.2-.2-.2-.4,0,0,.2,0,.2-.1,0,0,0-.6-.2-.6h.2c0-.1.2,0,.2,0-.2-.2-.2-.2-.2-.4h.2s-.1-.3-.1-.3h.1c-.1,0-.1-.8,0-.8h.2c0,0-.1-.2-.1-.2h.1c0-.1-.1,0-.1-.1,0-.2,0-.5.1-.6,0,0,0-.2,0-.2,0,0,.2-.2.2-.3l-.2-.2h.2s-.1-.2-.1-.2v-.2c-.1,0,0-.2,0-.4h-.1v-.2h.1s0-.4,0-.4v.2c-.4,0-.1-.2-.1-.2,0-.2-.3-.8-.4-.9-.2-.3-.6-.3-.5-.8h-.2c.2-.4-.3-.4-.4-.6,0-.1,0-.2,0-.3,0-.2-.5-.2-.4-.6h-.2c0,.1,0-.2,0-.2h-.2c.1-.3,0-.2,0-.4h-.2c0,0,0-.5-.4-.3v-.3h-.2c0,0,0-.1,0-.1h-.2c0-.4-.2-.1-.4-.2s-.2-.4-.2-.4c0,0-.2,0-.2,0,0,0,0-.2,0-.2,0,0-.2,0-.2,0,0,0,0-.1,0-.2,0,0-.4-.4-.5-.5,0,0-.2,0-.3,0,0,0,0-.6-.4-.4v-.2c0,0-.1,0-.1,0,0-.5-.5-.2-.5-.6h-.2c0-.2-.2,0-.3-.2,0,0,0-.2-.2-.4,0-.1-.3-.2-.4-.3.1-.3-.3-.2-.3-.5h-.2c0,0,0-.1,0-.1-.2,0-.3-.3-.4-.4,0,0-.2,0-.3,0-.2-.1-.2-.3-.2-.3h0ZM86.9,57.8c-.2.2-.3-.2-.5-.2v.2c0,0,0,0,0,.2,0,0,.1.1,0,.2-.2-.2-.3.2-.4.2,0,0,0,0-.1,0,0,0-.2.1-.3,0v.2c0,0,0,0,0,0,0,0,0,.2,0,.3,0,.2.2-.2.3-.2v.2c0,0,.1,0,.1,0v.2h-.2c0,0,.2,0,.2,0v.2c0,0,.2,0,.2,0,0-.1.1-.3.3-.3v.2c0-.1.1.2.2.1,0,0-.2-.4-.1-.6h.2c0,0-.2-.2-.2-.2h.3c0,0-.1-.1-.1-.1l.2-.3-.4-.2h.2v-.2h0ZM85.8,59.4c-.3-.1-.2,0-.3,0,0,0-.2,0-.2.2,0,.2.2,0,.2.2,0,.1-.2.2-.2.3.5,0,0,.4,0,.4.3,0,.2,0,.4-.2h.7c0,0-.1-.2-.1-.2h.2c0,.1,0,0,0,0h.4c0,0-.2,0-.2,0,0-.2,0-.4.2-.4l-.2-.2v.2s-.4-.1-.4-.1v.4c-.2-.2-.4-.3-.4-.5v.2c0,0-.2,0-.2,0,0-.2.3,0,.2-.3h0ZM86.1,60.9c0,0,0-.2,0-.3v.2s-.3-.1-.3-.1v.2c0,0-.2,0-.2-.2h-.2c0,.2.7.5.3.5h.1v.2h-.1s0,.4,0,.4h-.2c0,0,.2.4.2.4l-.2-.2-.2.3.2.2v-.2s.2,0,.2,0c0,.1.2-.2.1-.3.2,0,0,.2.2.2,0-.2,0-.3.2-.4,0-.2-.2-.3-.4-.2v-.2c.2,0,.2.1.2.1.1,0,.2-.1.3,0,0-.2,0-.3,0-.5-.2,0-.3,0-.5.1,0-.2.2-.2.2-.3h0Z"/>
      <path d="M15.9,38c0,0-.1-.2-.1-.2v.2h-.3c0-.1.1-.2.1-.3s-.1-.2-.1-.3c0-.3.3-.5-.1-.6h0c.2-.1.3-.5.2-.6h-.2c0-.1,0-.4,0-.5,0-.2.3-.2.2-.3h-.2c.1-.2,0-.2,0-.4l.5-.3h-.3c0,0,0,.1,0,.1h-.2v-.7h.2c0,0-.2,0-.2,0v-.3h-.2c-.1,0,.1-.2.3-.2v-.2c0,0,.2.1.2.1v-.2c.1.3.2.3.4.4-.1.1-.2.2-.2.4l.2-.2c0,0,.2.5.3.4v-.3c0,0,.1-.1.1-.3h.2c0,.1,0-.2,0-.2h.2-.1c0,.1,0,.2,0,.2l.2-.2-.3-.3v.2c0,0-.2-.1-.3-.2-.1,0-.3.1-.3,0,.2,0,.3,0,.2-.2h.1v.2h.5c0,0,0-.2,0-.2h.2c0,0,0-.2,0-.2h.2c-.1-.2-.2-.2-.1-.4h-.2c0,0,0-.2,0-.2h.3c0,0-.2-.4-.2-.4.3-.3-.2-.5.1-.6-.2,0-.1-.2,0-.2,0,0,0,.1,0,.1,0,0,.1,0,.2,0,0,0,.2.1.3.1v.3c0,0-.2,0-.2,0,0,.1.2,0,.2.2,0,0,0,.2,0,.3h-.2c0,.1,0,.1.3.2v.3h-.3s.3.2.3.2l-.2.5h.2c0-.1,0,.3,0,.3h.2c-.1.3,0,.6-.2.9h-.2c0,0,0,0,0,0h-.5c0,0,0-.2,0-.2v-.2c-.1,0,.1,0,.1,0v-.2c0,0-.6,0-.4.3,0,0,.2.2.2.4-.1,0-.5,0-.5,0,0,.1.3,0,.2.2-.2-.1-.2,0-.4.1,0,.2.2.2.3.1,0,.2-.2.1-.3.2v.2c-.3,0,0-.3,0-.3-.1,0-.2.1-.3.1-.1,0-.3-.1-.5,0,0,.1.1,0,.2,0,0,0,.1.2.3,0h0c0,0,.1.1.1.1,0,.3-.3,0-.4,0s.2.2.2.3.1,0,.2.1h-.2c0,0,0,.5,0,.5.2,0,.1.1.3.2l.4-.2-.4.4-.3-.2c0,.2.2.3.4.3,0,.2-.3.2-.2.4,0,.2.3,0,.4,0,0,.2,0,.1-.1.2-.2,0-.3,0-.3.3h.1c.3-.1.5.1.2.3h0c0-.1-.3,0-.3,0v-.2s-.1,0-.1,0v.2c0,0,0,0-.1,0,0,0,.1.2.1.2h.2s0,.1,0,.1h.2c0,0,.3,0,.3,0,.1-.2-.3-.2,0-.4.2.1.2.2.5,0v.2c.2-.2-.1-.5-.3-.4v-.2c0,0-.2,0-.2,0,0-.3,0-.7.4-.5,0-.2,0-.2-.1-.2.3-.5.2,0,.4-.2l-.2-.2h.3c0-.1-.1-.2-.1-.2,0,0,0-.2,0-.2v.2s-.2,0-.2,0c0,0,0,.2-.1.1-.1-.3,0-.5-.2-.7,0,0,.3.1.3.2,0,0,0,.3,0,.3s0-.5,0-.5l.3-.3h0c0-.1-.2,0-.2,0h.2c0-.1.2.2.2.2l-.2-.5h.2s0-.2,0-.2h.2c0,0-.2,0-.2,0l.2-.4c0,.3.2.2.3.3l-.2.2c0,.1.2.1.2.3,0,0,0,.1,0,.2,0,0,0,0,.1,0,0,.2-.1.4,0,.6,0,0-.2-.2-.2,0,0,.4.2.7.3,1,0,.2-.2,0-.1.1,0,0,0,.2.2.2h0c0,.1-.2.2-.2.2h.2c-.2.2-.4.2-.4.6.2,0,.6.4.2.4.1.1,0,.3,0,.4,0,0,.1,0,.1,0,0,.1-.1.2,0,.3h-.1s.2.6.2.6h-.2c0,0,.1,0,.1,0h0c0,.1-.2.2-.2.2h.2c0,0,0,.4,0,.4v.2c.1,0,0,0,0,0l.2.3c-.2,0,0-.2-.2-.2,0,0-.1,0,0,.1,0,0,0,0,.1,0,0,.1,0,.3.3.4l-.3.2.2.5v.2c-.1,0,0,0,0,0l-.2.4c.4.1,0,.7.2,1,0,0,.1,0,.1,0,0,.2-.2.1-.1.3h.2c-.2.3,0,.8,0,1.2h-.2s.2.4.2.4h-.2v.3h.2c0,.3,0,.5.2.7h-.2s.1.5.1.7c0,0-.2,0-.1.4,0,.1.1.2.2.2,0,.2,0,.7,0,1h-.1s0-.2,0-.2c0,.2.1.3.2.4,0,0,0,.3,0,.4h-.2c0,.1.1,0,.2.2,0,.2,0,.5,0,.7h.2c0,.2-.1.2-.1.2,0,.1.1.5.1.5,0,0-.2.1-.2.3l.2.2c-.2,0-.3.2-.2.4h.2c0,.2,0,.3,0,.6,0,.1-.1.2,0,.3,0,.2.3.3,0,.5l.2.2h-.4c0-.1,0,0,0,0h.2l-.2.2c.3,0,.2.8.2.8,0,0,.2,0,.2.2h-.2c0,0,0,.4,0,.4.3,0,.2,0,0,.2.3.1,0,.2,0,.2h.2c0,.3-.1.8.1.9l-.2.2.2.2-.2.2c.2.2,0,.5.2.7h-.2c.3.4.1.3,0,.5,0,.1,0,.2,0,.4h.2c0-.1.1,0,.1,0l-.2.2v.2c0,0,.1-.1.1-.1.3.2,0,.3,0,.4,0,0,0,.2,0,.3,0,0-.1.1-.1.2,0,0,.1,0,.1,0,0,0,0,.2,0,.2.1.1.1,0,0,.3h.2c0,.2,0,.8,0,.9,0,0,.2.2.2.3-.2.2-.2.2-.1.5,0,0,0,0,.1,0,0,.2-.1.5.1.5l-.3.2h.2c-.1.4,0,.7,0,1s0,.3,0,.4.1,0,.2.1c.1.2.2,1,.2,1.3,0,0,.2.2,0,.3l-.2-.2c0,.2.2.3.2.5l-.2-.2c-.1.1,0,.2.1.3s.2.6,0,.4c.2.4,0,.6,0,.9h.2s0,.4,0,.4c.3.1,0,.2,0,.2,0,.1.2.4,0,.6h.2v.2c-.4-.1-.2,0,0,.2h-.2c.2,0,.1.2.2.3,0,0,.1.1.1.2,0,0-.1.2-.1.2,0,0,0,.4,0,.5,0,0,.2,0,.2,0,0,0-.3.3-.2.5h.2c0,0,0,.2,0,.2h.1s-.1.4-.1.4h.1s-.1.2-.1.2h.1c0,.2-.1.2-.1.4s.2.4.2.6c0,.1,0,.4,0,.6,0,0,.1.1.1.2,0,0-.1.3-.1.4h.2c0,.1,0,.4,0,.5,0,.1,0,.8,0,.9,0,.1.1.2.2.5,0,.3-.1.2-.1.2,0,0,.1.2.1.3,0,0,0,.2,0,.3,0,0,.2,0,.2,0,.1.1-.1.1-.2.2v.4c0,.1.3.3.4.4h-.2c0,0,.2.5.2.5h-.2c.2.2.2.2.2.4h.1c.1.2,0,.4,0,.4,0,0,.3.2,0,.4,0,0,.2,0,0,.3,0,0-.1,0-.1.1h.2c0,.3,0,.6.2.9,0,0-.1.3-.1.5,0,0,.3.3.2.6h-.2c0,.1.2.2.2.2v.4c.4-.2.2.1.2.3,0,.5,0,.6.2,1,0,.1,0,.3.2.4l-.2.2c.1.1,0,.2.1.3,0,0,.1,0,.1.2,0,.3-.1.6.2.8h-.2c.3,0,.3.2.4.4h-.2c.2.2.2.3.2.5h.2c.1.1,0,.3,0,.3,0,0,.4.4.5.3h0c.2.2.3.3.4.4.1.1.2.2.3.3,0,0,.6.3.7.3s0,.2,0,.2c0,0,.5,0,.6.3h.2c0-.1.2.2.2.2.2,0,.6.1.7.2,0,0,0,.1.2.1.2,0,.5,0,.6,0v.2l.4-.2v.2c0,0,1.2,0,1.2,0l.2.2.3-.3v.2c.4,0,.8-.3,1.2-.2,0,0,0,.1,0,.1.1,0,.2-.2.4-.2s.3,0,.6,0c.2,0,.3.1.4-.1,0,.2.5.2.6.2,0,0,0-.2.2-.2.1,0,.7.2.9-.2v.2c.2-.1.4,0,.7,0s.7-.1.7,0c.2,0,.6-.2.7-.2.2,0,.2,0,.3.2h0c.5,0,1.1-.3,1.6,0v-.2c.3,0,.3.2.5.2v-.2c.3.4.9,0,1.4.2v-.2c.1,0,.3,0,.4,0v.2c.2,0,.5,0,.7,0,.4,0,.2,0,.4,0,.1,0,.4.2.5,0,0,.3.5,0,.6,0s.2.2.4,0l.2.2h0c0-.1.2,0,.2,0v-.2c0,0,.2,0,.2,0v.2s.4,0,.4,0h0c0,0,.4,0,.6,0s.2,0,.2,0h0c0,.1,0-.1,0-.1.1,0,.2,0,.3,0,.2,0,.4-.2.5.2l.2-.2v.2c.5,0,1,0,1.4.1v-.2c.3.3.4,0,.5,0,0,0,.4.2.6,0v.2c.4,0,.5-.4.7-.1,0-.3.3,0,.4,0,.2,0,.2-.2.4-.2v.2c0,0,.2,0,.3,0,.2,0,.3-.2.3-.2,0,0,.1,0,.2.1.3,0,.7,0,1,.1h0c0-.1.4,0,.4,0h0c.1.2.5,0,.8.1v-.2c.2,0,.2.1.2.1,0,0,.4-.1.4-.2h.2v.2c0,0,.2,0,.2,0s0,0,.2,0c0,0,.3-.2.3-.2v.2c.3,0,.6,0,1,0,0,0,.2,0,.3,0s.1.2.2.1v-.2h.2c0,0,0,0,0,0,.4.3.8.3,1.2.2h0c0,.1.1,0,.1,0,.1,0,.3,0,.4,0,0,0,0,.1,0,.1,0,0,.1,0,.2-.1,0,0,.3.2.4.2s0,0,0-.1c.4-.1.5.1.9,0h0c0,.1.3,0,.3,0v.2c0,0,.2-.2.2-.2.2,0,.2.2.3.2.2,0,.3,0,.4,0,.1,0,.3,0,.5,0v.2c.4-.4.3,0,.4,0,0,0,.4-.3.6-.1h0c.2,0,.2,0,.4,0,.3,0,.8-.2.9,0,.2-.3.5-.1.8-.2v.2s.3-.2.3-.2v.2c.4-.1.6-.3.8,0v-.2h.1v.2c0,0,.1-.2.1-.2v.2c.4-.2.9-.3,1.1,0,0,0,0-.2.3-.2,0,0,0,.2.3.1,0,0,0,0,0-.1,0,0,.2,0,.3,0v-.2c.1,0,.2.2.4.1h0c0,.1.6,0,.6,0h0c.2-.2.2,0,.3,0,.2,0,.9,0,1.1-.2v.2c.1,0,.2-.2.2-.2h.2c0,.1,0,0,0,0h.3c0-.2.2.1.3.1,0,0,.1,0,.2,0,0,0,.8,0,.8,0,0,0,0,.1.1.1.2,0,.5-.1.7-.1.2,0,.6.4.9,0,0,.3.2,0,.4,0,.5-.1.7.1.9.1,0,0,.2-.1.2-.1.6,0,1.4,0,2,0,.5,0,1-.2,1.4,0v-.2c.3,0,.2,0,.2.1.2,0,.4,0,.6,0,.3,0,.5,0,.7-.2.1.3.1.1.4.1.3,0,.4.2.6,0,.3.3.4,0,.7,0,0,0,.2,0,.3,0,.2,0,.4-.1.6-.1v.2c.3-.1.4-.3.7,0v-.2c.2.1.5,0,.6,0,.2,0,.4.4.6,0h.4c0,0,0,0,0,0,.1,0,.1,0,.2,0,.2,0,.3,0,.5,0s.2,0,.3,0c.2,0,.3,0,.5,0v-.2c.2,0,.3.2.4.2.3,0,1.1,0,1.3.1,0,0,0,.1,0,.1.1,0,.4,0,.5,0s.2.1.2,0,.2-.1.3-.1.8,0,.9,0c0,0,0,.1.1.2.2.1.3,0,.6,0v.2h.1s0-.2,0-.2c.4.4.8.3,1.3.2v.2c0,0,.6,0,.6,0v.2c.3,0,.4.2.8,0,.3-.1.2-.4.2-.7h1.2c0,0,0,.7,0,.7.2,0,.3.2.4.3.2.1.5,0,.6,0,0,0,.1.2.3.2s.3,0,.5,0c.4,0,.9.6,1,1s-.4,1-.8,1.1c-.4-.8-.9-1.5-1.8-1.8-1.7-.5-3.3.6-3.6,2.3h-.4c0,0,0,.1,0,.1-.3,0-.6-.2-.9,0,0-.2-.2,0-.2,0-.3-.4-.6,0-.7,0s-.2-.2-.3-.2c0,0-.4,0-.6.1-.3,0-1-.1-1.3-.2-.6,0-1,0-1.6,0-.1,0-.3,0-.4,0-.6,0-1.2,0-1.8,0h0c-.3,0-.2,0-.4-.2-.2,0-.5,0-.6,0s-.2-.1-.2-.1c0,0-.1.2-.2.2s-.2,0-.3,0c-.4,0-.8,0-1.2.1h0c-.2,0-.4-.2-.4,0-.1-.1-.3-.1-.5,0,0,0,0,.1,0,.1-.1,0-.3-.2-.4-.2,0,0-.2,0-.3,0,0,0-.2-.1-.2-.1s-.2,0-.2,0c-1.2,0-2.3,0-3.5,0,0,0-.2,0-.2,0h0c-.2,0-.5,0-.8,0-.3,0-.5.2-.8,0v.2c-.3-.4-.6,0-.8,0-.2,0-.6-.1-.8,0v-.2c-.3.4-.4.1-.8,0-.3,0-.4.2-.6,0l-.2.2-.2-.2h-.2c0-.2-.6.2-.6.2,0,0-.2-.1-.4-.1-.2,0-.4.2-.6.2-.2,0-.3-.1-.6,0h0c0-.1-.3,0-.3,0h0c-.3,0-.8-.2-1.1-.2-.3,0,0,0-.4,0,0,0-.5,0-.5.2-.2-.2-.4,0-.5,0s-.4-.2-.5-.2c-.2,0-.9,0-.9.2-.2,0-.5-.2-.7-.2s-.2.1-.4.1c0,0,0,0,0-.1-.2,0-.6,0-.8,0h-.4c0,0-.2-.1-.2,0s-.3.2-.5.2c0,0-.2-.1-.2,0-.2,0-.2.2-.5,0,0,.3-.2.1-.3,0-.2,0-.3.1-.5-.2l-.2.2v-.2c-.3.2-.5,0-.8,0-.1,0-.3,0-.4,0-.1,0,0-.1-.1-.1,0,0-.2,0-.3,0,0,.3-.1.1-.3,0-.2,0-.4,0-.5,0-.2,0-.5-.2-.5,0-.4-.2-1,0-1.5,0h0c0-.1-2.5,0-2.5,0h0c0,0-.4,0-.6,0-1.1.2-2.3,0-3.5,0-.4,0-.4,0-.8,0,0,0-.8,0-.9,0-.6,0-1,.3-1.6.3-1.2,0-2.7-.2-3.9,0-.1,0,0,.1-.1.1-.8.2-2.2-.1-3.2,0-.1,0-.3.1-.3.2-.1,0-.3-.1-.4-.2-.4,0-.8,0-1.2,0-.5,0-.9,0-1.4,0-1,0-2.2-.4-3.2,0h0c-.9.2-2-.2-2.9.1h0c-.1-.2-.4,0-.5,0s-.2,0-.3,0c-1.5-.1-3.1.1-4.6.1h0c-1.4-.1-2.9.2-4.3,0-.7,0-1.5,0-2.2,0-.5,0-1,0-1.5,0-.8,0-1.6-.1-2.3-.1-.5,0-1.1.4-1.3.4-.4,0-.8-.6-.4-.9.2-.2,1.3-.6,1.6-.7.7,0,1.4,0,2.1-.1,2.7-.2,5.5,0,8.1-.2.5,0,1.1-.2,1.6-.3.1,0,.2,0,.4,0,0,0,0-.1.1-.2,0,0,.2,0,.2,0,0,0-.2-.3-.2-.3,0,0-.3,0-.4-.1h.2c0,0-.2-.2-.2-.2,0,.4-.5,0-.5-.2h-.2c0,0,0-.1,0-.1h-.4c.2-.3-.2-.2-.1-.4h0c0,.2,0,.1-.2.1v-.3l-.2.2c0-.4-.3-.3-.4-.6h-.2s0-.3,0-.4c0,0-.5,0-.4-.3l.2.2c0-.2-.3-.3-.3-.5h-.2c0,0,.1-.1.1-.1-.2-.1-.3,0-.3-.3-.4,0-.2-.5-.5-.8h-.2c.2-.2-.2-.4-.2-.4,0-.2,0-.6,0-.6,0,0-.1,0-.2-.1-.1-.2-.1-1,0-1.3h-.2c0-.2.1,0,.1-.2,0-.1-.1-.5-.3-.4,0-.2,0-.2,0-.3,0-.2.1-.7,0-.7.2-.3,0-.3,0-.4s0-.3-.2-.4l.2-.2-.2-.2h.1c0,0-.2-.4-.2-.4.2,0,0-.1,0-.3,0,0,.1-.2.1-.2l-.2-.3h.1s0-.3,0-.3h-.2s0-.3,0-.3h.2c0-.3-.2-.2-.2-.2,0,0,.2-.4-.1-.4h0c0-.1.2-.2.2-.2l-.3-.4c.2,0,0-.1,0-.2,0-.2,0-.5,0-.6,0,0-.1-.1-.1-.2h.2c0,0-.3-.4-.3-.4,0,0,0-.2,0-.2,0-.2-.2-.2,0-.5h-.2s0-1.1,0-1.1l-.2-.2.2-.2h-.1c0-.2.1-.2,0-.2v-.3c0,0,0-.3-.2-.2.4-.2,0-.6.1-1h-.1c0,0,.2-.2.2-.2h-.2v-1c-.1,0-.1-.2-.2-.3-.2-.3,0-.5,0-.8h.2c-.3-.2,0-.3,0-.4s-.2-.2-.2-.3,0-.2,0-.3c0-.2-.2-.6-.2-.6,0-.2.1,0,0-.4,0,0,0-.1,0-.2,0,0,0,0,0,0-.1,0-.3-.2,0-.2h0c0,.1,0-.2,0-.2h.2s0-.2,0-.2h-.3c.3-.1-.1-.2,0-.5h-.2c0,0,.1-.3.1-.4,0,0-.3-.2-.2-.3h.2c-.1-.1-.1,0,0-.3l-.2-.2.2-.2c-.3,0-.1-.2-.1-.3,0-.2,0-.3-.2-.5h.2c0-.2.1-.4-.1-.4l.2-.2h-.2c0,0,.2-.9-.1-1h.2c0-.1,0-.4,0-.4h-.2c0-.1.2-.2.2-.2l-.3-.2c.2,0,.1-.2.3,0l-.2-.2h.2c-.2,0-.1-.2-.1-.4,0,0,0-.1,0-.2,0-.2.1-.5-.1-.6h.2c-.2-.3,0-.5-.2-.8h.2s0-.2,0-.2h-.2c0-.2.1-.4.1-.7,0-.2-.2-.3,0-.5h-.1c0,0,0-.6,0-.6h-.2c.1-.2.2-.3.2-.5l-.2.2v-.7c0,0,0,0,0,0v-.2c0,0-.1,0-.1,0,.2-.2.2-.6.2-.9,0-.2-.2,0-.1-.1,0,0,.2-.1.2-.2,0-.2-.2-.1-.2-.2,0,0,0-.7,0-.8h-.2s.3-.2.3-.2c-.3,0-.3-.1-.3-.4h.1c-.1-.1-.2-1-.1-1,0,0,.3.2.3,0l-.5-.6h.2s.1-.4.1-.4h-.2c0,0-.2-.3,0-.2v-.3c.1,0,0,0,0,0,0-.2.1,0,.1-.2h-.1v-.2h.1c-.3,0,0-.6-.2-.6v-.4c.1,0,0,0,0,0,.4-.3,0-.5,0-.8,0-.1.2-.2.2-.4h-.2v-.2c0,0,0,0,0,0,.2-.3.1-.4-.1-.6h.1c0,0-.2-.2-.2-.2.2-.2.3-.4.2-.6h-.2c0-.3.2-.4.4-.5-.2-.1-.1-.2-.2-.4,0,0-.1-.1-.1-.2s.1-.2.2-.3c0-.1,0-.4,0-.5h-.2c0-.1,0-.4.2-.6-.1,0-.3,0-.2-.2h.2c0-.1,0-.2-.2-.3h.2s-.2-.4-.2-.4h.2c0-.2-.1-.3-.2-.5s0-.4.1-.6h-.2c.3-.3.1-.2,0-.4s.2-.5.1-.7h-.2c0,.1.1-.2.1-.2h-.2s.2-.1.2-.1v-.2c-.1,0,0-.2,0-.2l-.3.2c.1-.3.2-.4,0-.7h.1s-.1-.4-.1-.4h.1c0-.2-.1-.4-.1-.5s0-.2,0-.2c0,0,0-.2,0-.2,0,0,.2,0,.2,0h-.2v-.4h.1s-.2-.2-.2-.2h0c0-.1.2-.1.2-.1l-.2-.2.2-.2h-.2c0-.1.2-.3.2-.3-.3,0-.2-.4-.2-.6,0-.1-.1-.2-.1-.3s.1,0,.1,0c0-.1,0-.3.2-.3v-.2c0,0,0,0,.1,0h0ZM17.1,39.2c-.1.3-.1.1-.3,0,0,0-.1,0-.1,0-.2,0,0-.3-.2-.3v.5h-.2s0,0,0,0h-.2c0,.2.2,0,.4,0,0,0,.3.3.3.3l-.4-.2v.3c0,0-.2,0-.2,0l.2.2-.2.2c0,.1.3,0,.2.2,0,.2-.2,0-.3,0,.2.3.5,0,.7.2l.3-.2s-.1.3,0,.2c0,0,.2-.3.3,0l-.2.3h-.2c-.1-.1-.4.2-.2.2,0,0,.2,0,.1,0h-.2c.1.4,0,.2-.2,0v.2c.2.2.5.3.4.7h.2c0,0,.1.3.1.3,0-.3,0-.4.2-.6l-.3.2-.2-.2c.2.1.3-.2.6-.1,0-.2-.4,0-.4-.2l.2-.2.2.2v-.3c-.1,0,0,0,0,0h0c0-.1.2-.2.2-.2h-.1c0-.1-.3,0-.3,0,.1-.2,0-.4,0-.5,0-.1.2,0,.2-.2h-.3s.3-.2.3-.2l-.2-.2h0c-.3,0,0,0,0-.2s0-.3,0-.4v.2c.3,0,0-.3.2-.4h-.4c0-.1,0-.1,0-.1ZM17.1,43.6c0,0,0-.2,0-.3,0,0,0-.3,0-.3.1.3-.2.5-.2.8-.4-.2-.2.1-.4.3h.2c0,0,0,0,0,0v.2h1s-.1-.2-.1-.2h.2c0,0-.4,0-.4,0h0c0-.1-.2,0-.2,0l.2-.2h-.1c0,0,.3-.3.3-.3v.2h.2l-.2-.4c.1,0,.4,0,.4-.2h-.2c0-.1,0-.2,0-.2,0,.2,0,.3-.2.3h0c0,.1-.4.3-.4.3ZM17.8,47.1h-.4c0,.1.1.3.1.3h-.2c0,.1,0,0,0,0l-.4.2c0,.2.1.3.3.2v.2c-.1,0,.2,0,.2,0-.1.2,0,.3.1.4h-.3s.2.1.2.1v.2h.1v-.2s.3.2.3.2v-.4c.4,0,.3-.3,0-.5h.2v-.3c-.2,0-.1.2-.2.2-.2,0-.2-.3-.2-.4,0,0,.1-.1.1-.2h0Z"/>
      <path d="M16.8,22.7v.4c.1,0,0-.1,0-.1h-.2c0,.1,0,0,0,0h-.2v.2c0,0-.1-.1-.1-.1v.2h-.2v.3h-.2c0,.1-.3.2-.2.5,0,0,.1.1.2.3,0,.2,0,.4,0,.5-.2-.1-.3,0-.4.2h.3c0,.1,0,.4,0,.4h.2c0,.1-.3.2-.2.4,0,0,.3,0,.2.2,0,0-.3.2-.4.2l.2-.2-.2-.4h.1c0-.1-.3,0-.3,0,0-.2-.3-.2-.4-.4,0-.2.1-.2.2-.1l-.2-.2c.2,0,.2,0,.2-.2h-.1c0,0,.2-.4.2-.4-.1,0-.4.2-.4-.1h.2-.2c0,0,.4-.2.4-.2h-.4s.1,0,.1,0c-.2-.2,0-.5,0-.6,0-.1-.2-.4,0-.5h.2c0,0-.4-.2-.3-.3h.2c0,0-.2-.3-.2-.3s.1-.1.2-.2c0-.1,0-.4,0-.5.3,0-.2-.5.1-.5v-.3c0-.2,0-.1.1-.2,0,0,0-.2,0-.3s.1-.2.1-.3c0-.1-.2-.2,0-.4h-.1l.2-.4h-.2c0-.3,0-.5.2-.6l-.2-.2h.2c0,0-.2-.2-.2-.2l.4-.5.3.2v-.2c-.2,0-.5,0-.4-.2h.2s-.1-.4-.1-.4h.2c-.1-.2,0-.2,0-.2,0-.1,0-.3.3-.3l-.2-.2c0-.3.2-.4.4-.5v-.2.2c-.4,0,0-.3,0-.4,0-.1,0-.2,0-.3h.2v-.2c0,0,.1,0,.1,0,0-.3.1-.3.4-.4h-.1c0-.3.4-.3.6-.2,0-.3,0-.4.2-.5,0,0,.2,0,.2,0,0,0,0-.2.2-.3.2-.1.5,0,.5.3h.2c0,0-.2.4.2.3-.3.3-.4.5-.4.9h.2v-.2s.1.2.1.2v.2c0,0,.2-.3.2-.3.1,0,0,.4,0,.4h.6c0-.1,0-.4,0-.4.1,0,.2,0,.3,0,.2,0,0,.4,0,.3,0,0,.2-.2,0-.2v.2c.2.1.2,0,.4,0,0,.2-.1.3-.1.4,0,.2,0,.4,0,.6-.2,0-.5,0-.6.1-.2.1-.4.4-.6.3,0,.2,0,.3-.1.4h0c-.3,0-.3.1-.2.4h-.2c0,0,0,.4,0,.4h-.3v.3c.1,0,0,0,0,0v.2c0,0-.2.1-.2.1v.2h.2c-.2.2-.2.5,0,.7-.2.2-.3-.1-.3.3h.2s-.2.2-.2.2c0,.3.2.3.2.5h-.2s0,.2,0,.2h-.2c0,0,.2.4.2.4l-.3.2h.1s0,.3,0,.3h.2c0,.1-.1.3-.2.4,0,.2,0,.5-.2.6h.2s-.2.2-.2.2l.2.4h-.1c.2.4-.1.4-.1.4,0,0,.1.2,0,.3h.2l-.2.8.2-.2v.4s-.2,0-.2,0v.2h-.2v.2c.1,0,.3,0,.3,0,0,.2,0,.3,0,.4h-.2s.2.2.2.2l-.2.2.2.2c0,.2-.2.2,0,.4h-.2v.2c.1,0,0,0,0,0,.1,0,.3.2.2.4l-.4-.2.2.2h-.4c0,0,.2.1.2.1h.3l-.2.3c0,.1.2.1.3,0-.1,0-.2.4-.2.4,0,0-.1,0-.2,0,0,0,0,.2,0,.2,0,0,.2,0,.2.2,0,.3-.1,0-.2.2.7,0,0,.2.2.5h-.2,0c0,.1-.1.2-.1.2l.3.2h0c0,.1-.1.1-.1.1.4.6-.5.6-.5,0h-.2c0,0,.2-.3.2-.3l-.4.2s.2-.2.2-.2c0,0,0-.2,0-.2,0,0,.1,0,.2,0,.2-.1.4-.5,0-.4,0,0-.1.2-.2.1,0-.2.3-.2.2-.4h.1s-.2-.3-.2-.3h.4c0,0,0-.2,0-.2l-.2.2c0-.1,0-.4,0-.5,0,0,.2,0,.1-.2,0-.2-.1-.1-.3-.1v-.2h-.4c0-.2.4,0,.4-.1v-.2c0,0,.1,0,.1,0v-.4c.1,0,0,.1,0,.1-.2,0-.5-.3,0-.1,0,0,0-.3,0-.4,0,0,.2,0,.2-.1,0-.2-.2-.4.2-.5h-.2s0-.4,0-.4h-.3c0-.4-.1-.4-.2-.6l.2.2v-.4c0,0-.1,0-.1,0h.2c0-.1,0-.2,0-.2h.2c0,0,0-.2,0-.2,0,.2-.3.1-.3.1,0,0-.2.2-.2.2,0,0,0,.2,0,.2h-.2c0-.1.1,0,.1,0,0,.1-.3,0-.2.1s.3.2.2.5c-.3,0-.1-.2-.2-.3,0,0-.3,0-.4-.2h.2s0-.5,0-.5h-.2c0,.1,0-.2,0-.2l.4.2v-.4s.2.4.2.4h.2c-.1-.3-.1-.4-.3-.6.1,0,.3,0,.4,0,.1,0,.2.6.5.1h-.2c-.3-.2.1-.2.3-.1,0,0,0,.3.3.2,0-.2-.3-.1-.2-.4h0c0,.1-.5-.2-.5-.2,0,0,0,0,0-.1h.2c-.2-.1-.2-.4.1-.4,0-.1-.4-.1-.3-.3,0,0,.2,0,.2-.2h.1c0,0,0-.1,0-.1h.1c0,0,.1,0,.1,0v-.3l-.3.2v-.3h.2s-.2,0-.2,0l.2-.2c0-.2-.2-.2-.4-.3-.1,0,0,.3-.3,0h.2c0,0,0-.3,0-.3l.3.2-.2-.3.2-.2h-.2c0,0,.2-.1.2-.1v-.4c-.1,0,0,0,0,0v-.2h-.1s.1-.3.1-.3h-.3c0,0,0,.4,0,.4h-.2v-.2c0,0-.2,0-.2,0v.2c0,0,0,0,0,0v.2c-.1,0,0,0,0,0,0,.2-.2.1-.2.4,0,.3.5.7,0,1,0,0-.2,0-.2.1.2,0,.5,0,.6.2h-.6c0,0,.1.1.1.1-.1.1-.2.2-.4.2h.2v.3h.4c0,0,0,.4,0,.4l.2-.2.2.2v.2c-.2,0-.1-.1-.2-.1-.2,0-.4,0-.3.3v-.2s.2,0,.2,0h0c0,.1.2.1.2,0h0ZM17.7,16.2c.2,0,0-.2.1-.3,0-.1.2-.2.2-.3-.2.2-.2.2-.5.1l.2.2h-.3c0-.1-.1.1-.1.1h-.2c0-.1-.3,0-.3,0v.2c0,0,.2,0,.2,0l-.4.4c.1,0,.2-.1.2-.1.1,0,.1.2.2.2v-.3h.2c0-.2.1-.3.3-.4h0Z"/>
      <path d="M15.7,27c.1.2-.2,0-.2.2h.4c0,0-.2.1-.2.4,0,.1.5.5,0,.4h0c.3.3.4-.4.6,0h-.2s0,.2,0,.2h-.3s0,.2,0,.2c-.2.1-.2.2-.2.5.1,0,0-.3.2-.3.3,0,.3.3.3.4h-.2c0,0,.3,0,.3,0-.2.2-.2.6,0,.8.1,0,.4-.1,0,.3v-.2h-.4c0,.1.4.1.4.4h-.2s-.2.2-.3.2v.2c0,0-.4.3-.4.3,0-.3,0-.4.2-.5h-.4s.1-.2.1-.2h-.1c0-.3,0-.4.2-.5l-.2-.3.2-.4h-.2c0,0,.1-.3.1-.3h-.2c.1-.1,0-.3,0-.4,0,0,.1-.2,0-.3,0-.1-.2-.2,0-.5h.2c0,0-.2-.1-.2-.1.4-.2.1-.3.2-.6-.1,0-.3,0-.2-.2h.6c0,0,0,0,0,0Z"/>
      <path d="M15.5,31.7c0,.1.2.4,0,.5.2,0,.5-.1.6,0h-.1c0,0,.1.2.1.2h-.2s0,0,0,0h-.1c0,.1,0,.2-.2.3h0c0,.1-.3.1-.3.1v-.3h-.2c0,0,.2-.1.2-.3,0-.2,0-.2,0-.3s.1-.2,0-.4h-.2c0,0,0-.2,0-.2,0,0,.3.2.4.2h0Z"/>
      <path d="M95.9,85.3v.2c0,0-.4,0-.4,0l.4.5c-.3.1-.4-.2-.6-.4v.4s-.2,0-.2,0v-.7s.8,0,.8,0h0Z"/>
      <path d="M31.5,34.9c0-.2-.1-.5-.1-.7,0-.1.2-.2,0-.4-.1-.1-.2,0-.4,0l.3.2h-.3c0,0,0-.2,0-.2h-.2c0,.1,0-.2,0-.2h.1s0-.2,0-.2l-.3.2v-.6c0,0-.1,0-.1,0h.4c0-.1-.4-.2-.4-.2h.4s-.2-.2-.2-.2h.2c0-.2-.3-.2-.3-.2-.2-.1,0-.3.2-.3v.2c0,0,.2,0,.2,0,0-.2-.3-.2-.1-.4h.4c0,0-.2.2-.2.2.2,0,.5.3.5.5l.2-.2c0,.1-.1.2-.1.3,0,0,.2.2,0,.4.4,0,.4.5.8.2,0,.3-.3.2-.2.5l.4.7-.4-.4v.3c.1,0-.1,0-.1,0l.2.2c-.3,0,0,.3-.4.2,0,.2,0,.3,0,.4h-.2c0,0,.1.2.1.2h-.2c0-.1-.2,0-.2,0,0-.1.1-.2.1-.2s0-.1-.1-.2c0,0-.1-.6-.2-.5v.5c0,0,0-.3,0-.3l-.2.2-.2-.4c.2-.1.4,0,.6-.1h-.2v-.3c0,.2.4.2.4.2.2.2-.2.5.2.6h0Z"/>
      <path d="M86.9,57.8v.2h-.2s.4.2.4.2l-.2.3v.2c.1,0-.2,0-.2,0h.2c0,.1-.2.2-.2.2,0,.1.2.5.1.6,0,0-.2-.2-.3-.1v-.2c0,0,0,.2-.2.3h-.3s0-.2,0-.2h-.2s.2,0,.2,0v-.2h-.2c0,0,0-.2,0-.2,0,0-.2.4-.3.2,0,0,0-.2,0-.3h.1s0-.2,0-.2c.1,0,.2,0,.3,0s0,0,.1,0c0,0,.2-.3.4-.2,0-.1,0-.1,0-.2,0,0,.1-.2,0-.2v-.2c.3,0,.4.4.6.2h0Z"/>
      <path d="M85.8,59.4c0,.2-.2.1-.2.3,0,0,.1.1.2,0v-.2c0,.2.3.4.4.5v-.4s.4.1.4.1v-.2s.2.2.2.2c-.2,0,0,.2-.2.4h.2c0,0-.4,0-.4,0v.2h-.2c0-.1.1.1.1.1h-.7c-.2,0-.1.1-.4.1,0,0,.5-.5,0-.4,0-.1.2-.1.2-.3,0-.2-.2,0-.2-.2,0-.2.2-.2.2-.2.1,0,0-.2.3,0h0Z"/>
      <path d="M86.1,60.9s-.3,0-.2.3c.2-.1.3-.2.5-.1-.1.2,0,.3,0,.5-.1-.1-.2,0-.3,0s0-.2,0-.1v.2c0,0,.2,0,.2.2-.1.1-.2.2-.2.4-.2,0,0-.3-.2-.2,0,0,0,.4-.1.3h-.1c0,0,0,0,0,0l-.2-.2.2-.3.2.2-.2-.4h.2c0,0,0-.3,0-.3h.1v-.2h-.1c.4,0-.3-.4-.3-.5h.2c0,.1.2.2.4.2v-.2c-.1,0,.2.1.2.1v-.2c0,0,.1.2,0,.3h0Z"/>
      <path d="M17.1,39.2h.4c0,.3.2.5,0,.5v-.2c-.2,0-.1.3-.2.4,0,.2-.4.2,0,.4h0c0-.1.2,0,.2,0l-.3.2h.3c0,0-.1,0-.2.1,0,.2,0,.4,0,.5l.3-.2h.1c0,.1-.2.2-.2.2h0c0,.1-.2.2-.2.2v.3c.1,0,0-.2,0-.2l-.2.2c0,.2.3,0,.4.2-.3,0-.3.2-.6.1l.2.2.3-.2c-.2.2-.3.3-.2.6v-.4c-.1,0-.3,0-.3,0,0-.4-.2-.6-.6-.7v-.2c.3.2.5.3.3,0h.2c0-.2,0-.1-.1-.1-.2,0,0-.3.2-.3h0c0,.1.1.1.1.1l.2-.3c-.1-.2-.2,0-.3,0-.1,0,0-.2,0-.2l-.3.2c-.2-.3-.5,0-.7-.2.1,0,.2.1.3,0,0-.2-.3,0-.2-.2l.2-.2-.2-.2h.2c0,0,0-.2,0-.2l.4.2c0,0-.2-.3-.3-.3-.2,0-.5.1-.4-.2h.2c0,.1,0,0,0,0h.2s0-.5,0-.5c.1,0,0,.2.2.3,0,0,.1,0,.1,0,.2,0,.2.2.3,0h0Z"/>
      <path d="M17.8,47.1c0,.1,0,.2-.1.2,0,.1,0,.4.2.4,0,0,0-.2.2-.2v.2h-.2c.3.2.4.6,0,.5v.4c0,0-.2-.2-.2-.2v.2h-.2v-.2h-.2c0,0,.3-.1.3-.1,0-.2-.2-.2-.1-.4h-.4c0,0,.1-.2.1-.2-.2,0-.3,0-.3-.2l.4-.2h0c0,.1.2,0,.2,0v-.2c-.1,0,.2-.1.2-.1h0Z"/>
      <path d="M17.1,43.6l.4-.2h0c.2-.1.3-.2.2-.4.1,0,.1.1,0,.2h.2c0,.2-.3.1-.4.2l.2.4h-.2v-.2l-.3.2h.1c0,0-.2.3-.2.3h.2c0-.1,0,0,0,0h.4c0-.1-.2,0-.2,0v.2c.1,0-.8,0-.8,0v-.2h0c0,.1-.2,0-.2,0,.2-.2,0-.4.4-.3,0-.3.3-.4.2-.8.1,0,0,.3,0,.3,0,.1,0,.2,0,.3Z"/>
      <path d="M17.7,16.2h0c0-.1,0-.1,0-.1-.2.2-.3.2-.3.5h-.2s0,.3,0,.3c-.1,0-.1-.2-.2-.2s-.1.2-.2.1l.4-.4h-.2s0-.2,0-.2l.3-.2h0c0,.1.2.1.2.1v-.2c.1,0,.4.1.4.1l-.2-.2c.3,0,.3,0,.5-.1,0,.1-.1.2-.2.3,0,.1,0,.3-.1.3h0Z"/>
    </g>
  </g>
</svg>