<?xml version="1.0" encoding="UTF-8"?>
<svg id="principal" xmlns="http://www.w3.org/2000/svg" viewBox="0 0 78.97 41.07">
  <defs>
    <style>
      .cls-1 {
        fill: #cd1613;
      }
    </style>
  </defs>
  <path class="cls-1" d="M19.81,11.52c-3.68,2.96-7.35,5.92-11.03,8.88-1.19.96-.36,2.71.83,3.13,1.56.56,3.17.35,4.75,0,1.76-.39,3.51-.84,5.26-1.26,3.47-.83,6.94-1.67,10.41-2.5,7.02-1.69,14.05-3.38,21.07-5.07l-2.12-2.75c-2.99,6.1-10.75,8.67-12.16,15.77-.33,1.67,1.25,2.83,2.75,2.12,9.69-4.56,19.64-8.56,29.79-11.99l-2.12-2.75c-2.13,3.75-5.2,6.76-8.27,9.74-1.51,1.46.45,4.11,2.27,2.94.58-.37,1.17-.75,1.75-1.12,2.03-1.3.15-4.54-1.89-3.24-.58.37-1.17.75-1.75,1.12l2.27,2.94c3.29-3.2,6.57-6.48,8.86-10.5.77-1.35-.52-3.29-2.12-2.75-10.45,3.53-20.7,7.67-30.68,12.37l2.75,2.12c.62-3.15,2.97-5.29,5.25-7.36,2.46-2.23,5.04-4.47,6.53-7.51.72-1.46-.46-3.15-2.12-2.75-6.7,1.61-13.4,3.22-20.1,4.83-3.31.8-6.62,1.59-9.93,2.39-1.61.39-3.23.78-4.84,1.17-1.5.36-3.11.99-4.62.45l.83,3.13c3.68-2.96,7.35-5.92,11.03-8.88.79-.64.65-1.98,0-2.65-.77-.79-1.87-.63-2.65,0h0Z"/>
</svg>